<?xml version="1.0" encoding="utf-8" standalone="no"?>
<!DOCTYPE svg PUBLIC "-//W3C//DTD SVG 1.1//EN"
  "http://www.w3.org/Graphics/SVG/1.1/DTD/svg11.dtd">
<svg xmlns:xlink="http://www.w3.org/1999/xlink" width="517.0716pt" height="222.12pt" viewBox="0 0 517.0716 222.12" xmlns="http://www.w3.org/2000/svg" version="1.1">
 <metadata>
  <rdf:RDF xmlns:dc="http://purl.org/dc/elements/1.1/" xmlns:cc="http://creativecommons.org/ns#" xmlns:rdf="http://www.w3.org/1999/02/22-rdf-syntax-ns#">
   <cc:Work>
    <dc:type rdf:resource="http://purl.org/dc/dcmitype/StillImage"/>
    <dc:date>2026-05-04</dc:date>
    <dc:format>image/svg+xml</dc:format>
    <dc:creator>
     <cc:Agent>
      <dc:title>Matplotlib v3.10.8, https://matplotlib.org/</dc:title>
     </cc:Agent>
    </dc:creator>
   </cc:Work>
  </rdf:RDF>
 </metadata>
 <defs>
  <style type="text/css">*{stroke-linejoin: round; stroke-linecap: butt}</style>
 </defs>
 <g id="figure_1">
  <g id="patch_1">
   <path d="M 0 222.12
L 517.0716 222.12
L 517.0716 0
L 0 0
z
" style="fill: #ffffff"/>
  </g>
  <g id="axes_1">
   <g id="patch_2">
    <path d="M 31.328237 107.32104
L 108.739663 107.32104
Q 121.306453 107.32104 121.306453 102.12804
L 121.306453 80.52516
Q 121.306453 75.33216 108.739663 75.33216
L 31.328237 75.33216
Q 18.761447 75.33216 18.761447 80.52516
L 18.761447 102.12804
Q 18.761447 107.32104 31.328237 107.32104
z
" clip-path="url(#p90c1dd0923)" style="fill: #f8fafc; stroke: #64748b; stroke-linejoin: miter"/>
   </g>
   <g id="patch_3">
    <path d="M 156.996137 92.3652
L 201.733909 92.3652
Q 210.781998 92.3652 210.781998 88.62624
L 210.781998 76.37076
Q 210.781998 72.6318 201.733909 72.6318
L 156.996137 72.6318
Q 147.948048 72.6318 147.948048 76.37076
L 147.948048 88.62624
Q 147.948048 92.3652 156.996137 92.3652
z
" clip-path="url(#p90c1dd0923)" style="fill: #dcfce7; stroke: #16a34a; stroke-linejoin: miter"/>
   </g>
   <g id="patch_4">
    <path d="M 212.792684 92.3652
L 260.043815 92.3652
Q 269.091904 92.3652 269.091904 88.62624
L 269.091904 76.37076
Q 269.091904 72.6318 260.043815 72.6318
L 212.792684 72.6318
Q 203.744596 72.6318 203.744596 76.37076
L 203.744596 88.62624
Q 203.744596 92.3652 212.792684 92.3652
z
" clip-path="url(#p90c1dd0923)" style="fill: #fed7aa; stroke: #c2410c; stroke-linejoin: miter"/>
   </g>
   <g id="patch_5">
    <path d="M 156.996137 142.218
L 201.733909 142.218
Q 210.781998 142.218 210.781998 138.47904
L 210.781998 126.22356
Q 210.781998 122.4846 201.733909 122.4846
L 156.996137 122.4846
Q 147.948048 122.4846 147.948048 126.22356
L 147.948048 138.47904
Q 147.948048 142.218 156.996137 142.218
z
" clip-path="url(#p90c1dd0923)" style="fill: #dcfce7; stroke: #16a34a; stroke-linejoin: miter"/>
   </g>
   <g id="patch_6">
    <path d="M 212.792684 142.218
L 260.043815 142.218
Q 269.091904 142.218 269.091904 138.47904
L 269.091904 126.22356
Q 269.091904 122.4846 260.043815 122.4846
L 212.792684 122.4846
Q 203.744596 122.4846 203.744596 126.22356
L 203.744596 138.47904
Q 203.744596 142.218 212.792684 142.218
z
" clip-path="url(#p90c1dd0923)" style="fill: #fed7aa; stroke: #c2410c; stroke-linejoin: miter"/>
   </g>
   <g id="patch_7">
    <path d="M 302.770901 92.3652
L 347.508673 92.3652
Q 356.556762 92.3652 356.556762 88.62624
L 356.556762 76.37076
Q 356.556762 72.6318 347.508673 72.6318
L 302.770901 72.6318
Q 293.722812 72.6318 293.722812 76.37076
L 293.722812 88.62624
Q 293.722812 92.3652 302.770901 92.3652
z
" clip-path="url(#p90c1dd0923)" style="fill: #dcfce7; stroke: #16a34a; stroke-linejoin: miter"/>
   </g>
   <g id="patch_8">
    <path d="M 358.567448 92.3652
L 405.818579 92.3652
Q 414.866668 92.3652 414.866668 88.62624
L 414.866668 76.37076
Q 414.866668 72.6318 405.818579 72.6318
L 358.567448 72.6318
Q 349.51936 72.6318 349.51936 76.37076
L 349.51936 88.62624
Q 349.51936 92.3652 358.567448 92.3652
z
" clip-path="url(#p90c1dd0923)" style="fill: #fb923c; stroke: #c2410c; stroke-linejoin: miter"/>
   </g>
   <g id="patch_9">
    <path d="M 302.770901 142.218
L 380.182327 142.218
Q 389.230416 142.218 389.230416 138.47904
L 389.230416 126.22356
Q 389.230416 122.4846 380.182327 122.4846
L 302.770901 122.4846
Q 293.722812 122.4846 293.722812 126.22356
L 293.722812 138.47904
Q 293.722812 142.218 302.770901 142.218
z
" clip-path="url(#p90c1dd0923)" style="fill: #dcfce7; stroke: #16a34a; stroke-linejoin: miter"/>
   </g>
   <g id="patch_10">
    <path d="M 391.241102 142.218
L 395.765147 142.218
Q 404.813236 142.218 404.813236 138.47904
L 404.813236 126.22356
Q 404.813236 122.4846 395.765147 122.4846
L 391.241102 122.4846
Q 382.193014 122.4846 382.193014 126.22356
L 382.193014 138.47904
Q 382.193014 142.218 391.241102 142.218
z
" clip-path="url(#p90c1dd0923)" style="fill: #fdba74; stroke: #c2410c; stroke-linejoin: miter"/>
   </g>
   <g id="patch_11">
    <path d="M 432.962845 152.18856
L 488.759393 152.18856
Q 503.839541 152.18856 503.839541 145.95696
L 503.839541 103.16664
Q 503.839541 96.93504 488.759393 96.93504
L 432.962845 96.93504
Q 417.882697 96.93504 417.882697 103.16664
L 417.882697 145.95696
Q 417.882697 152.18856 432.962845 152.18856
z
" clip-path="url(#p90c1dd0923)" style="fill: #ecfdf5; stroke: #16a34a; stroke-width: 1.2; stroke-linejoin: miter"/>
   </g>
   <g id="text_1">
    <text style="font-weight: 700; font-size: 11px; font-family: 'DejaVu Sans', sans-serif; text-anchor: start" x="17.253432" y="21.7404" transform="rotate(-0 17.253432 21.7404)">Adaptive C-PERSIST: repair once, reuse the repaired state</text>
   </g>
   <g id="text_2">
    <text style="font-size: 7.6px; font-family: 'DejaVu Sans', sans-serif; text-anchor: start; fill: #475569" x="17.253432" y="36.2808" transform="rotate(-0 17.253432 36.2808)">The visual tail is bought at the first follow-up. Fixed K=1 buys it again; adaptive reuse mostly appends text.</text>
   </g>
   <g id="text_3">
    <text style="font-weight: 700; font-size: 8px; font-family: 'DejaVu Sans', sans-serif; text-anchor: middle; fill: #334155" x="67.520592" y="52.8984" transform="rotate(-0 67.520592 52.8984)">First query</text>
   </g>
   <g id="text_4">
    <text style="font-weight: 700; font-size: 8px; font-family: 'DejaVu Sans', sans-serif; text-anchor: middle; fill: #334155" x="218.322072" y="52.8984" transform="rotate(-0 218.322072 52.8984)">Follow-up 1 repair</text>
   </g>
   <g id="text_5">
    <text style="font-weight: 700; font-size: 8px; font-family: 'DejaVu Sans', sans-serif; text-anchor: middle; fill: #334155" x="369.123552" y="52.8984" transform="rotate(-0 369.123552 52.8984)">Follow-up 2 reuse</text>
   </g>
   <g id="text_6">
    <text style="font-size: 7px; font-family: 'DejaVu Sans', sans-serif" transform="translate(53.641919 89.338928)">full prefill</text>
    <text style="font-size: 7px; font-family: 'DejaVu Sans', sans-serif" transform="translate(46.787388 97.177397)">~8.1k tokens</text>
   </g>
   <g id="text_7">
    <text style="font-weight: 700; font-size: 8.2px; font-family: 'DejaVu Sans', sans-serif; text-anchor: start; fill: #14532d" x="17.253432" y="81.9792" transform="rotate(-0 17.253432 81.9792)">Fixed K=1</text>
   </g>
   <g id="text_8">
    <text style="font-weight: 700; font-size: 8.2px; font-family: 'DejaVu Sans', sans-serif; text-anchor: start; fill: #14532d" x="17.253432" y="131.832" transform="rotate(-0 17.253432 131.832)">Adaptive</text>
   </g>
   <g id="text_9">
    <text style="font-size: 6.6px; font-family: 'DejaVu Sans', sans-serif; text-anchor: middle" x="179.365023" y="84.215827" transform="rotate(-0 179.365023 84.215827)">cache</text>
   </g>
   <g id="text_10">
    <text style="font-size: 6.3px; font-family: 'DejaVu Sans', sans-serif; text-anchor: middle" x="236.41825" y="84.133046" transform="rotate(-0 236.41825 84.133046)">459 tok</text>
   </g>
   <g id="text_11">
    <text style="font-size: 6.6px; font-family: 'DejaVu Sans', sans-serif; text-anchor: middle" x="179.365023" y="134.068627" transform="rotate(-0 179.365023 134.068627)">cache</text>
   </g>
   <g id="text_12">
    <text style="font-size: 6.3px; font-family: 'DejaVu Sans', sans-serif; text-anchor: middle" x="236.41825" y="133.985846" transform="rotate(-0 236.41825 133.985846)">459 tok</text>
   </g>
   <g id="text_13">
    <text style="font-size: 6.6px; font-family: 'DejaVu Sans', sans-serif; text-anchor: middle" x="325.139787" y="84.215827" transform="rotate(-0 325.139787 84.215827)">cache</text>
   </g>
   <g id="text_14">
    <text style="font-size: 6.3px; font-family: 'DejaVu Sans', sans-serif; text-anchor: middle" x="382.193014" y="84.133046" transform="rotate(-0 382.193014 84.133046)">451 tok</text>
   </g>
   <g id="text_15">
    <text style="font-size: 6.6px; font-family: 'DejaVu Sans', sans-serif; text-anchor: middle" x="341.476614" y="134.068627" transform="rotate(-0 341.476614 134.068627)">repaired cache</text>
   </g>
   <g id="text_16">
    <text style="font-size: 6.3px; font-family: 'DejaVu Sans', sans-serif; text-anchor: middle" x="393.503125" y="133.985846" transform="rotate(-0 393.503125 133.985846)">50 tok</text>
   </g>
   <g id="patch_12">
    <path d="M 117.787752 91.3266
Q 134.124579 87.1722 149.269503 83.320897
" style="fill: none; stroke: #64748b; stroke-width: 1.1; stroke-linecap: round"/>
    <path d="M 144.681502 82.320774
L 149.269503 83.320897
L 145.716604 86.391224
" style="fill: none; stroke: #64748b; stroke-width: 1.1; stroke-linecap: round"/>
   </g>
   <g id="patch_13">
    <path d="M 117.787752 91.3266
Q 134.124579 112.0986 149.701127 131.903917
" style="fill: none; stroke: #64748b; stroke-width: 1.1; stroke-linecap: round"/>
    <path d="M 148.755359 127.304404
L 149.701127 131.903917
L 145.454055 129.900824
" style="fill: none; stroke: #64748b; stroke-width: 1.1; stroke-linecap: round"/>
   </g>
   <g id="patch_14">
    <path d="M 266.075874 82.39464
Q 282.412701 82.39464 297.519691 82.39464
" style="fill: none; stroke: #16a34a; stroke-width: 1.1; stroke-linecap: round"/>
    <path d="M 293.319691 80.29464
L 297.519691 82.39464
L 293.319691 84.49464
" style="fill: none; stroke: #16a34a; stroke-width: 1.1; stroke-linecap: round"/>
   </g>
   <g id="patch_15">
    <path d="M 266.075874 132.24744
Q 282.412701 132.24744 297.519691 132.24744
" style="fill: none; stroke: #16a34a; stroke-width: 1.1; stroke-linecap: round"/>
    <path d="M 293.319691 130.14744
L 297.519691 132.24744
L 293.319691 134.34744
" style="fill: none; stroke: #16a34a; stroke-width: 1.1; stroke-linecap: round"/>
   </g>
   <g id="text_17">
    <text style="font-size: 7px; font-family: 'DejaVu Sans', sans-serif; fill: #7c2d12" transform="translate(334.373722 61.677531)">6.65s</text>
    <text style="font-size: 7px; font-family: 'DejaVu Sans', sans-serif; fill: #7c2d12" transform="translate(326.009816 69.516)">repeat tail</text>
   </g>
   <g id="text_18">
    <text style="font-size: 7px; font-family: 'DejaVu Sans', sans-serif; fill: #14532d" transform="translate(337.173563 148.919931)">0.675s</text>
    <text style="font-size: 7px; font-family: 'DejaVu Sans', sans-serif; fill: #14532d" transform="translate(312.129422 156.7584)">reuse repaired cache</text>
   </g>
   <g id="text_19">
    <text style="font-weight: 700; font-size: 8px; font-family: 'DejaVu Sans', sans-serif; fill: #14532d" transform="translate(448.161033 108.04821)">9.50x</text>
    <text style="font-weight: 700; font-size: 8px; font-family: 'DejaVu Sans', sans-serif; fill: #14532d" transform="translate(446.127283 117.00646)">paired</text>
    <text style="font-weight: 700; font-size: 8px; font-family: 'DejaVu Sans', sans-serif; fill: #14532d" transform="translate(441.366033 125.96471)">speedup</text>
   </g>
   <g id="text_20">
    <text style="font-size: 6.7px; font-family: 'DejaVu Sans', sans-serif; fill: #166534" transform="translate(439.484369 133.045314)">88.9% fewer</text>
    <text style="font-size: 6.7px; font-family: 'DejaVu Sans', sans-serif; fill: #166534" transform="translate(443.206533 140.547848)">tail tokens</text>
   </g>
   <g id="text_21">
    <text style="font-size: 7.2px; font-family: 'DejaVu Sans', sans-serif; text-anchor: start; fill: #166534" x="32.33358" y="181.6848" transform="rotate(-0 32.33358 181.6848)">green = cached prefix/state</text>
   </g>
   <g id="text_22">
    <text style="font-size: 7.2px; font-family: 'DejaVu Sans', sans-serif; text-anchor: start; fill: #c2410c" x="147.948048" y="181.6848" transform="rotate(-0 147.948048 181.6848)">orange = newly bought tail work</text>
   </g>
   <g id="text_23">
    <text style="font-size: 6.8px; font-family: 'DejaVu Sans', sans-serif; text-anchor: start; fill: #475569" x="17.253432" y="198.3024" transform="rotate(-0 17.253432 198.3024)">Short-slice stage-timing attribution; broader repair contract in text.</text>
   </g>
  </g>
 </g>
 <defs>
  <clipPath id="p90c1dd0923">
   <rect x="7.2" y="7.2" width="502.6716" height="207.72"/>
  </clipPath>
 </defs>
</svg>
