<?xml version="1.0" encoding="utf-8" standalone="no"?>
<!DOCTYPE svg PUBLIC "-//W3C//DTD SVG 1.1//EN"
  "http://www.w3.org/Graphics/SVG/1.1/DTD/svg11.dtd">
<svg xmlns:xlink="http://www.w3.org/1999/xlink" width="540.072pt" height="334.188pt" viewBox="0 0 540.072 334.188" xmlns="http://www.w3.org/2000/svg" version="1.1">
 <metadata>
  <rdf:RDF xmlns:dc="http://purl.org/dc/elements/1.1/" xmlns:cc="http://creativecommons.org/ns#" xmlns:rdf="http://www.w3.org/1999/02/22-rdf-syntax-ns#">
   <cc:Work>
    <dc:type rdf:resource="http://purl.org/dc/dcmitype/StillImage"/>
    <dc:date>2026-05-02</dc:date>
    <dc:format>image/svg+xml</dc:format>
    <dc:creator>
     <cc:Agent>
      <dc:title>Matplotlib v3.10.8, https://matplotlib.org/</dc:title>
     </cc:Agent>
    </dc:creator>
   </cc:Work>
  </rdf:RDF>
 </metadata>
 <defs>
  <style type="text/css">*{stroke-linejoin: round; stroke-linecap: butt}</style>
 </defs>
 <g id="figure_1">
  <g id="patch_1">
   <path d="M 0 334.188
L 540.072 334.188
L 540.072 0
L 0 0
z
" style="fill: #ffffff"/>
  </g>
  <g id="axes_1">
   <g id="patch_2">
    <path d="M 28.22688 173.327328
L 129.155904 173.327328
Q 139.669344 173.327328 139.669344 167.371488
L 139.669344 69.695712
Q 139.669344 63.739872 129.155904 63.739872
L 28.22688 63.739872
Q 17.71344 63.739872 17.71344 69.695712
L 17.71344 167.371488
Q 17.71344 173.327328 28.22688 173.327328
z
" clip-path="url(#p75e5bcc352)" style="fill: #ffffff; stroke: #0f172a; stroke-width: 0.75; stroke-linejoin: miter"/>
   </g>
   <g id="patch_3">
    <path d="M 35.060616 81.011808
L 32.957928 81.011808
Q 43.471368 81.011808 43.471368 75.055968
L 43.471368 73.567008
Q 43.471368 67.611168 32.957928 67.611168
L 35.060616 67.611168
Q 24.547176 67.611168 24.547176 73.567008
L 24.547176 75.055968
Q 24.547176 81.011808 35.060616 81.011808
z
" clip-path="url(#p75e5bcc352)" style="fill: #111827; stroke: #111827; stroke-width: 0.7; stroke-linejoin: miter"/>
   </g>
   <g id="patch_4">
    <path d="M 41.179438 106.860154
L 50.26305 106.860154
Q 60.77649 106.860154 60.77649 100.904314
L 60.77649 99.713146
Q 60.77649 93.757306 50.26305 93.757306
L 41.179438 93.757306
Q 30.665998 93.757306 30.665998 99.713146
L 30.665998 100.904314
Q 30.665998 106.860154 41.179438 106.860154
z
" clip-path="url(#p75e5bcc352)" style="fill: #f8fafc; stroke: #111827; stroke-width: 0.8; stroke-linejoin: miter"/>
   </g>
   <g id="patch_5">
    <path d="M 97.699692 106.860154
L 105.605798 106.860154
Q 116.119238 106.860154 116.119238 100.904314
L 116.119238 99.713146
Q 116.119238 93.757306 105.605798 93.757306
L 97.699692 93.757306
Q 87.186252 93.757306 87.186252 99.713146
L 87.186252 100.904314
Q 87.186252 106.860154 97.699692 106.860154
z
" clip-path="url(#p75e5bcc352)" style="fill: #f8fafc; stroke: #111827; stroke-width: 0.8; stroke-linejoin: miter"/>
   </g>
   <g id="patch_6">
    <path d="M 41.179438 124.012973
L 50.26305 124.012973
Q 60.77649 124.012973 60.77649 118.057133
L 60.77649 116.865965
Q 60.77649 110.910125 50.26305 110.910125
L 41.179438 110.910125
Q 30.665998 110.910125 30.665998 116.865965
L 30.665998 118.057133
Q 30.665998 124.012973 41.179438 124.012973
z
" clip-path="url(#p75e5bcc352)" style="fill: #f8fafc; stroke: #111827; stroke-width: 0.8; stroke-linejoin: miter"/>
   </g>
   <g id="patch_7">
    <path d="M 97.699692 124.012973
L 105.605798 124.012973
Q 116.119238 124.012973 116.119238 118.057133
L 116.119238 116.865965
Q 116.119238 110.910125 105.605798 110.910125
L 97.699692 110.910125
Q 87.186252 110.910125 87.186252 116.865965
L 87.186252 118.057133
Q 87.186252 124.012973 97.699692 124.012973
z
" clip-path="url(#p75e5bcc352)" style="fill: #f8fafc; stroke: #111827; stroke-width: 0.8; stroke-linejoin: miter"/>
   </g>
   <g id="patch_8">
    <path d="M 101.652745 119.248301
L 107.834648 119.248301
L 107.834648 115.674797
L 101.652745 115.674797
z
" clip-path="url(#p75e5bcc352)" style="fill: #22c55e; opacity: 0.88"/>
   </g>
   <g id="patch_9">
    <path d="M 41.179438 141.165792
L 50.26305 141.165792
Q 60.77649 141.165792 60.77649 135.209952
L 60.77649 134.018784
Q 60.77649 128.062944 50.26305 128.062944
L 41.179438 128.062944
Q 30.665998 128.062944 30.665998 134.018784
L 30.665998 135.209952
Q 30.665998 141.165792 41.179438 141.165792
z
" clip-path="url(#p75e5bcc352)" style="fill: #f8fafc; stroke: #111827; stroke-width: 0.8; stroke-linejoin: miter"/>
   </g>
   <g id="patch_10">
    <path d="M 97.699692 141.165792
L 105.605798 141.165792
Q 116.119238 141.165792 116.119238 135.209952
L 116.119238 134.018784
Q 116.119238 128.062944 105.605798 128.062944
L 97.699692 128.062944
Q 87.186252 128.062944 87.186252 134.018784
L 87.186252 135.209952
Q 87.186252 141.165792 97.699692 141.165792
z
" clip-path="url(#p75e5bcc352)" style="fill: #f8fafc; stroke: #111827; stroke-width: 0.8; stroke-linejoin: miter"/>
   </g>
   <g id="patch_11">
    <path d="M 107.834648 136.40112
L 114.01655 136.40112
L 114.01655 132.827616
L 107.834648 132.827616
z
" clip-path="url(#p75e5bcc352)" style="fill: #22c55e; opacity: 0.88"/>
   </g>
   <g id="patch_12">
    <path d="M 156.490848 173.327328
L 257.419872 173.327328
Q 267.933312 173.327328 267.933312 167.371488
L 267.933312 69.695712
Q 267.933312 63.739872 257.419872 63.739872
L 156.490848 63.739872
Q 145.977408 63.739872 145.977408 69.695712
L 145.977408 167.371488
Q 145.977408 173.327328 156.490848 173.327328
z
" clip-path="url(#p75e5bcc352)" style="fill: #ffffff; stroke: #0f172a; stroke-width: 0.75; stroke-linejoin: miter"/>
   </g>
   <g id="patch_13">
    <path d="M 163.324584 81.011808
L 161.221896 81.011808
Q 171.735336 81.011808 171.735336 75.055968
L 171.735336 73.567008
Q 171.735336 67.611168 161.221896 67.611168
L 163.324584 67.611168
Q 152.811144 67.611168 152.811144 73.567008
L 152.811144 75.055968
Q 152.811144 81.011808 163.324584 81.011808
z
" clip-path="url(#p75e5bcc352)" style="fill: #111827; stroke: #111827; stroke-width: 0.7; stroke-linejoin: miter"/>
   </g>
   <g id="patch_14">
    <path d="M 175.330932 103.644
L 198.544608 103.644
Q 209.058048 103.644 209.058048 97.68816
L 209.058048 93.280838
Q 209.058048 87.324998 198.544608 87.324998
L 175.330932 87.324998
Q 164.817492 87.324998 164.817492 93.280838
L 164.817492 97.68816
Q 164.817492 103.644 175.330932 103.644
z
" clip-path="url(#p75e5bcc352)" style="fill: #ffffff; stroke: #111827; stroke-width: 0.8; stroke-linejoin: miter"/>
   </g>
   <g id="patch_15">
    <path d="M 175.330932 122.940922
L 198.544608 122.940922
Q 209.058048 122.940922 209.058048 116.985082
L 209.058048 112.57776
Q 209.058048 106.62192 198.544608 106.62192
L 175.330932 106.62192
Q 164.817492 106.62192 164.817492 112.57776
L 164.817492 116.985082
Q 164.817492 122.940922 175.330932 122.940922
z
" clip-path="url(#p75e5bcc352)" style="fill: #ffffff; stroke: #111827; stroke-width: 0.8; stroke-linejoin: miter"/>
   </g>
   <g id="patch_16">
    <path d="M 174.927216 114.781421
L 182.934252 114.781421
L 182.934252 111.297254
L 174.927216 111.297254
z
" clip-path="url(#p75e5bcc352)" style="fill: #3b82f6; opacity: 0.88"/>
   </g>
   <g id="patch_17">
    <path d="M 190.941288 118.265587
L 198.948324 118.265587
L 198.948324 114.781421
L 190.941288 114.781421
z
" clip-path="url(#p75e5bcc352)" style="fill: #ef4444; opacity: 0.88"/>
   </g>
   <g id="patch_18">
    <path d="M 175.330932 142.237843
L 198.544608 142.237843
Q 209.058048 142.237843 209.058048 136.282003
L 209.058048 131.874682
Q 209.058048 125.918842 198.544608 125.918842
L 175.330932 125.918842
Q 164.817492 125.918842 164.817492 131.874682
L 164.817492 136.282003
Q 164.817492 142.237843 175.330932 142.237843
z
" clip-path="url(#p75e5bcc352)" style="fill: #ffffff; stroke: #111827; stroke-width: 0.8; stroke-linejoin: miter"/>
   </g>
   <g id="patch_19">
    <path d="M 174.927216 134.078342
L 182.934252 134.078342
L 182.934252 130.594176
L 174.927216 130.594176
z
" clip-path="url(#p75e5bcc352)" style="fill: #3b82f6; opacity: 0.88"/>
   </g>
   <g id="patch_20">
    <path d="M 190.941288 137.562509
L 198.948324 137.562509
L 198.948324 134.078342
L 190.941288 134.078342
z
" clip-path="url(#p75e5bcc352)" style="fill: #ef4444; opacity: 0.88"/>
   </g>
   <g id="patch_21">
    <path d="M 284.754816 173.327328
L 385.68384 173.327328
Q 396.19728 173.327328 396.19728 167.371488
L 396.19728 69.695712
Q 396.19728 63.739872 385.68384 63.739872
L 284.754816 63.739872
Q 274.241376 63.739872 274.241376 69.695712
L 274.241376 167.371488
Q 274.241376 173.327328 284.754816 173.327328
z
" clip-path="url(#p75e5bcc352)" style="fill: #ffffff; stroke: #0f172a; stroke-width: 0.75; stroke-linejoin: miter"/>
   </g>
   <g id="patch_22">
    <path d="M 291.588552 81.011808
L 289.485864 81.011808
Q 299.999304 81.011808 299.999304 75.055968
L 299.999304 73.567008
Q 299.999304 67.611168 289.485864 67.611168
L 291.588552 67.611168
Q 281.075112 67.611168 281.075112 73.567008
L 281.075112 75.055968
Q 281.075112 81.011808 291.588552 81.011808
z
" clip-path="url(#p75e5bcc352)" style="fill: #111827; stroke: #111827; stroke-width: 0.7; stroke-linejoin: miter"/>
   </g>
   <g id="patch_23">
    <path d="M 296.529869 116.508614
L 303.25847 116.508614
Q 313.77191 116.508614 313.77191 110.552774
L 313.77191 106.145453
Q 313.77191 100.189613 303.25847 100.189613
L 296.529869 100.189613
Q 286.016429 100.189613 286.016429 106.145453
L 286.016429 110.552774
Q 286.016429 116.508614 296.529869 116.508614
z
" clip-path="url(#p75e5bcc352)" style="fill: #f8fafc; stroke: #111827; stroke-width: 0.7; stroke-linejoin: miter"/>
   </g>
   <g id="patch_24">
    <path d="M 329.500017 117.580666
L 331.518597 117.580666
Q 342.032037 117.580666 342.032037 111.624826
L 342.032037 107.217504
Q 342.032037 101.261664 331.518597 101.261664
L 329.500017 101.261664
Q 318.986577 101.261664 318.986577 107.217504
L 318.986577 111.624826
Q 318.986577 117.580666 329.500017 117.580666
z
" clip-path="url(#p75e5bcc352)" style="fill: #ffffff; stroke: #64748b; stroke-width: 0.55; stroke-linejoin: miter"/>
   </g>
   <g id="patch_25">
    <path d="M 334.79879 114.900538
L 336.817371 114.900538
Q 347.330811 114.900538 347.330811 108.944698
L 347.330811 104.537376
Q 347.330811 98.581536 336.817371 98.581536
L 334.79879 98.581536
Q 324.28535 98.581536 324.28535 104.537376
L 324.28535 108.944698
Q 324.28535 114.900538 334.79879 114.900538
z
" clip-path="url(#p75e5bcc352)" style="fill: #ffffff; stroke: #64748b; stroke-width: 0.55; stroke-linejoin: miter"/>
   </g>
   <g id="patch_26">
    <path d="M 340.097564 112.22041
L 342.116145 112.22041
Q 352.629585 112.22041 352.629585 106.26457
L 352.629585 101.857248
Q 352.629585 95.901408 342.116145 95.901408
L 340.097564 95.901408
Q 329.584124 95.901408 329.584124 101.857248
L 329.584124 106.26457
Q 329.584124 112.22041 340.097564 112.22041
z
" clip-path="url(#p75e5bcc352)" style="fill: #ffffff; stroke: #64748b; stroke-width: 0.55; stroke-linejoin: miter"/>
   </g>
   <g id="patch_27">
    <path d="M 367.180186 116.508614
L 368.021261 116.508614
Q 378.534701 116.508614 378.534701 110.552774
L 378.534701 107.217504
Q 378.534701 101.261664 368.021261 101.261664
L 367.180186 101.261664
Q 356.666746 101.261664 356.666746 107.217504
L 356.666746 110.552774
Q 356.666746 116.508614 367.180186 116.508614
z
" clip-path="url(#p75e5bcc352)" style="fill: #f8fafc; stroke: #111827; stroke-width: 0.7; stroke-linejoin: miter"/>
   </g>
   <g id="patch_28">
    <path d="M 413.018784 173.327328
L 513.947808 173.327328
Q 524.461248 173.327328 524.461248 167.371488
L 524.461248 69.695712
Q 524.461248 63.739872 513.947808 63.739872
L 413.018784 63.739872
Q 402.505344 63.739872 402.505344 69.695712
L 402.505344 167.371488
Q 402.505344 173.327328 413.018784 173.327328
z
" clip-path="url(#p75e5bcc352)" style="fill: #ffffff; stroke: #0f172a; stroke-width: 0.75; stroke-linejoin: miter"/>
   </g>
   <g id="patch_29">
    <path d="M 419.85252 81.011808
L 417.749832 81.011808
Q 428.263272 81.011808 428.263272 75.055968
L 428.263272 73.567008
Q 428.263272 67.611168 417.749832 67.611168
L 419.85252 67.611168
Q 409.33908 67.611168 409.33908 73.567008
L 409.33908 75.055968
Q 409.33908 81.011808 419.85252 81.011808
z
" clip-path="url(#p75e5bcc352)" style="fill: #111827; stroke: #111827; stroke-width: 0.7; stroke-linejoin: miter"/>
   </g>
   <g id="patch_30">
    <path d="M 454.231469 106.109718
L 466.847597 106.109718
Q 477.361037 106.109718 477.361037 100.153878
L 477.361037 100.463581
Q 477.361037 94.507741 466.847597 94.507741
L 454.231469 94.507741
Q 443.718029 94.507741 443.718029 100.463581
L 443.718029 100.153878
Q 443.718029 106.109718 454.231469 106.109718
z
" clip-path="url(#p75e5bcc352)" style="fill: #fee2e2; stroke: #b91c1c; stroke-width: 0.7; stroke-linejoin: miter"/>
   </g>
   <g id="patch_31">
    <path d="M 454.231469 124.334588
L 466.847597 124.334588
Q 477.361037 124.334588 477.361037 118.378748
L 477.361037 118.688452
Q 477.361037 112.732612 466.847597 112.732612
L 454.231469 112.732612
Q 443.718029 112.732612 443.718029 118.688452
L 443.718029 118.378748
Q 443.718029 124.334588 454.231469 124.334588
z
" clip-path="url(#p75e5bcc352)" style="fill: #dcfce7; stroke: #166534; stroke-width: 0.7; stroke-linejoin: miter"/>
   </g>
   <g id="patch_32">
    <path d="M 454.231469 142.559459
L 466.847597 142.559459
Q 477.361037 142.559459 477.361037 136.603619
L 477.361037 136.913322
Q 477.361037 130.957482 466.847597 130.957482
L 454.231469 130.957482
Q 443.718029 130.957482 443.718029 136.913322
L 443.718029 136.603619
Q 443.718029 142.559459 454.231469 142.559459
z
" clip-path="url(#p75e5bcc352)" style="fill: #dcfce7; stroke: #166534; stroke-width: 0.7; stroke-linejoin: miter"/>
   </g>
   <g id="patch_33">
    <path d="M 28.22688 301.377888
L 129.155904 301.377888
Q 139.669344 301.377888 139.669344 295.422048
L 139.669344 197.746272
Q 139.669344 191.790432 129.155904 191.790432
L 28.22688 191.790432
Q 17.71344 191.790432 17.71344 197.746272
L 17.71344 295.422048
Q 17.71344 301.377888 28.22688 301.377888
z
" clip-path="url(#p75e5bcc352)" style="fill: #ffffff; stroke: #0f172a; stroke-width: 0.75; stroke-linejoin: miter"/>
   </g>
   <g id="patch_34">
    <path d="M 35.060616 209.062368
L 32.957928 209.062368
Q 43.471368 209.062368 43.471368 203.106528
L 43.471368 201.617568
Q 43.471368 195.661728 32.957928 195.661728
L 35.060616 195.661728
Q 24.547176 195.661728 24.547176 201.617568
L 24.547176 203.106528
Q 24.547176 209.062368 35.060616 209.062368
z
" clip-path="url(#p75e5bcc352)" style="fill: #111827; stroke: #111827; stroke-width: 0.7; stroke-linejoin: miter"/>
   </g>
   <g id="patch_35">
    <path d="M 40.001933 242.415072
L 54.973071 242.415072
Q 65.486511 242.415072 65.486511 236.459232
L 65.486511 226.691654
Q 65.486511 220.735814 54.973071 220.735814
L 40.001933 220.735814
Q 29.488493 220.735814 29.488493 226.691654
L 29.488493 236.459232
Q 29.488493 242.415072 40.001933 242.415072
z
" clip-path="url(#p75e5bcc352)" style="fill: #f8fafc; stroke: #111827; stroke-width: 0.8; stroke-linejoin: miter"/>
   </g>
   <g id="patch_36">
    <path d="M 92.98967 242.415072
L 107.960809 242.415072
Q 118.474249 242.415072 118.474249 236.459232
L 118.474249 226.691654
Q 118.474249 220.735814 107.960809 220.735814
L 92.98967 220.735814
Q 82.47623 220.735814 82.47623 226.691654
L 82.47623 236.459232
Q 82.47623 242.415072 92.98967 242.415072
z
" clip-path="url(#p75e5bcc352)" style="fill: #f8fafc; stroke: #111827; stroke-width: 0.8; stroke-linejoin: miter"/>
   </g>
   <g id="patch_37">
    <path d="M 90.937447 231.575443
L 97.295975 231.575443
L 97.295975 226.751213
L 90.937447 226.751213
z
" clip-path="url(#p75e5bcc352)" style="fill: #38bdf8; opacity: 0.88"/>
   </g>
   <g id="patch_38">
    <path d="M 97.295975 236.399674
L 103.654504 236.399674
L 103.654504 231.575443
L 97.295975 231.575443
z
" clip-path="url(#p75e5bcc352)" style="fill: #38bdf8; opacity: 0.88"/>
   </g>
   <g id="patch_39">
    <path d="M 110.013032 231.575443
L 116.371561 231.575443
L 116.371561 226.751213
L 110.013032 226.751213
z
" clip-path="url(#p75e5bcc352)" style="fill: #38bdf8; opacity: 0.88"/>
   </g>
   <g id="patch_40">
    <path d="M 156.490848 301.377888
L 257.419872 301.377888
Q 267.933312 301.377888 267.933312 295.422048
L 267.933312 197.746272
Q 267.933312 191.790432 257.419872 191.790432
L 156.490848 191.790432
Q 145.977408 191.790432 145.977408 197.746272
L 145.977408 295.422048
Q 145.977408 301.377888 156.490848 301.377888
z
" clip-path="url(#p75e5bcc352)" style="fill: #ffffff; stroke: #0f172a; stroke-width: 0.75; stroke-linejoin: miter"/>
   </g>
   <g id="patch_41">
    <path d="M 163.324584 209.062368
L 161.221896 209.062368
Q 171.735336 209.062368 171.735336 203.106528
L 171.735336 201.617568
Q 171.735336 195.661728 161.221896 195.661728
L 163.324584 195.661728
Q 152.811144 195.661728 152.811144 201.617568
L 152.811144 203.106528
Q 152.811144 209.062368 163.324584 209.062368
z
" clip-path="url(#p75e5bcc352)" style="fill: #111827; stroke: #111827; stroke-width: 0.7; stroke-linejoin: miter"/>
   </g>
   <g id="patch_42">
    <path d="M 170.620911 242.415072
L 243.289809 242.415072
Q 253.803249 242.415072 253.803249 236.459232
L 253.803249 234.196013
Q 253.803249 228.240173 243.289809 228.240173
L 170.620911 228.240173
Q 160.107471 228.240173 160.107471 234.196013
L 160.107471 236.459232
Q 160.107471 242.415072 170.620911 242.415072
z
" clip-path="url(#p75e5bcc352)" style="fill: #eef2ff; stroke: #4f46e5; stroke-width: 0.75; stroke-linejoin: miter"/>
   </g>
   <g id="patch_43">
    <path d="M 162.210159 241.223904
L 197.535318 241.223904
L 197.535318 229.431341
L 162.210159 229.431341
z
" clip-path="url(#p75e5bcc352)" style="fill: #bfdbfe"/>
   </g>
   <g id="patch_44">
    <path d="M 284.754816 301.377888
L 385.68384 301.377888
Q 396.19728 301.377888 396.19728 295.422048
L 396.19728 197.746272
Q 396.19728 191.790432 385.68384 191.790432
L 284.754816 191.790432
Q 274.241376 191.790432 274.241376 197.746272
L 274.241376 295.422048
Q 274.241376 301.377888 284.754816 301.377888
z
" clip-path="url(#p75e5bcc352)" style="fill: #ffffff; stroke: #0f172a; stroke-width: 0.75; stroke-linejoin: miter"/>
   </g>
   <g id="patch_45">
    <path d="M 291.588552 209.062368
L 289.485864 209.062368
Q 299.999304 209.062368 299.999304 203.106528
L 299.999304 201.617568
Q 299.999304 195.661728 289.485864 195.661728
L 291.588552 195.661728
Q 281.075112 195.661728 281.075112 201.617568
L 281.075112 203.106528
Q 281.075112 209.062368 291.588552 209.062368
z
" clip-path="url(#p75e5bcc352)" style="fill: #111827; stroke: #111827; stroke-width: 0.7; stroke-linejoin: miter"/>
   </g>
   <g id="patch_46">
    <path d="M 298.884879 230.622509
L 304.435976 230.622509
Q 314.949416 230.622509 314.949416 224.666669
L 314.949416 222.40345
Q 314.949416 216.44761 304.435976 216.44761
L 298.884879 216.44761
Q 288.371439 216.44761 288.371439 222.40345
L 288.371439 224.666669
Q 288.371439 230.622509 298.884879 230.622509
z
" clip-path="url(#p75e5bcc352)" style="fill: #ffffff; stroke: #111827; stroke-width: 0.8; stroke-linejoin: miter"/>
   </g>
   <g id="patch_47">
    <path d="M 296.067277 225.500486
L 301.660428 225.500486
L 301.660428 221.569632
L 296.067277 221.569632
z
" clip-path="url(#p75e5bcc352)" style="fill: #22c55e; opacity: 0.88"/>
   </g>
   <g id="patch_48">
    <path d="M 345.985091 228.478406
L 352.713692 228.478406
Q 363.227132 228.478406 363.227132 222.522566
L 363.227132 224.547552
Q 363.227132 218.591712 352.713692 218.591712
L 345.985091 218.591712
Q 335.471651 218.591712 335.471651 224.547552
L 335.471651 222.522566
Q 335.471651 228.478406 345.985091 228.478406
z
" clip-path="url(#p75e5bcc352)" style="fill: #fff7ed; stroke: #92400e; stroke-width: 0.65; stroke-linejoin: miter"/>
   </g>
   <g id="patch_49">
    <path d="M 298.884879 246.703277
L 304.435976 246.703277
Q 314.949416 246.703277 314.949416 240.747437
L 314.949416 238.484218
Q 314.949416 232.528378 304.435976 232.528378
L 298.884879 232.528378
Q 288.371439 232.528378 288.371439 238.484218
L 288.371439 240.747437
Q 288.371439 246.703277 298.884879 246.703277
z
" clip-path="url(#p75e5bcc352)" style="fill: #ffffff; stroke: #111827; stroke-width: 0.8; stroke-linejoin: miter"/>
   </g>
   <g id="patch_50">
    <path d="M 301.660428 241.581254
L 307.253578 241.581254
L 307.253578 237.6504
L 301.660428 237.6504
z
" clip-path="url(#p75e5bcc352)" style="fill: #f97316; opacity: 0.88"/>
   </g>
   <g id="patch_51">
    <path d="M 345.985091 244.559174
L 352.713692 244.559174
Q 363.227132 244.559174 363.227132 238.603334
L 363.227132 240.62832
Q 363.227132 234.67248 352.713692 234.67248
L 345.985091 234.67248
Q 335.471651 234.67248 335.471651 240.62832
L 335.471651 238.603334
Q 335.471651 244.559174 345.985091 244.559174
z
" clip-path="url(#p75e5bcc352)" style="fill: #fff7ed; stroke: #92400e; stroke-width: 0.65; stroke-linejoin: miter"/>
   </g>
   <g id="patch_52">
    <path d="M 298.884879 262.784045
L 304.435976 262.784045
Q 314.949416 262.784045 314.949416 256.828205
L 314.949416 254.564986
Q 314.949416 248.609146 304.435976 248.609146
L 298.884879 248.609146
Q 288.371439 248.609146 288.371439 254.564986
L 288.371439 256.828205
Q 288.371439 262.784045 298.884879 262.784045
z
" clip-path="url(#p75e5bcc352)" style="fill: #ffffff; stroke: #111827; stroke-width: 0.8; stroke-linejoin: miter"/>
   </g>
   <g id="patch_53">
    <path d="M 307.253578 257.662022
L 312.846728 257.662022
L 312.846728 253.731168
L 307.253578 253.731168
z
" clip-path="url(#p75e5bcc352)" style="fill: #8b5cf6; opacity: 0.88"/>
   </g>
   <g id="patch_54">
    <path d="M 345.985091 260.639942
L 352.713692 260.639942
Q 363.227132 260.639942 363.227132 254.684102
L 363.227132 256.709088
Q 363.227132 250.753248 352.713692 250.753248
L 345.985091 250.753248
Q 335.471651 250.753248 335.471651 256.709088
L 335.471651 254.684102
Q 335.471651 260.639942 345.985091 260.639942
z
" clip-path="url(#p75e5bcc352)" style="fill: #fff7ed; stroke: #92400e; stroke-width: 0.65; stroke-linejoin: miter"/>
   </g>
   <g id="patch_55">
    <path d="M 413.018784 301.377888
L 513.947808 301.377888
Q 524.461248 301.377888 524.461248 295.422048
L 524.461248 197.746272
Q 524.461248 191.790432 513.947808 191.790432
L 413.018784 191.790432
Q 402.505344 191.790432 402.505344 197.746272
L 402.505344 295.422048
Q 402.505344 301.377888 413.018784 301.377888
z
" clip-path="url(#p75e5bcc352)" style="fill: #ffffff; stroke: #0f172a; stroke-width: 0.75; stroke-linejoin: miter"/>
   </g>
   <g id="patch_56">
    <path d="M 419.85252 209.062368
L 417.749832 209.062368
Q 428.263272 209.062368 428.263272 203.106528
L 428.263272 201.617568
Q 428.263272 195.661728 417.749832 195.661728
L 419.85252 195.661728
Q 409.33908 195.661728 409.33908 201.617568
L 409.33908 203.106528
Q 409.33908 209.062368 419.85252 209.062368
z
" clip-path="url(#p75e5bcc352)" style="fill: #111827; stroke: #111827; stroke-width: 0.7; stroke-linejoin: miter"/>
   </g>
   <g id="patch_57">
    <path d="M 419.915601 263.736979
L 421.093106 263.736979
L 421.093106 262.664928
L 419.915601 262.664928
z
" clip-path="url(#p75e5bcc352)" style="fill: #94a3b8; opacity: 0.75"/>
   </g>
   <g id="patch_58">
    <path d="M 424.036869 263.736979
L 425.214374 263.736979
L 425.214374 262.664928
L 424.036869 262.664928
z
" clip-path="url(#p75e5bcc352)" style="fill: #94a3b8; opacity: 0.75"/>
   </g>
   <g id="patch_59">
    <path d="M 428.158138 263.736979
L 429.335643 263.736979
L 429.335643 262.664928
L 428.158138 262.664928
z
" clip-path="url(#p75e5bcc352)" style="fill: #94a3b8; opacity: 0.75"/>
   </g>
   <g id="patch_60">
    <path d="M 432.279406 263.736979
L 433.456911 263.736979
L 433.456911 262.664928
L 432.279406 262.664928
z
" clip-path="url(#p75e5bcc352)" style="fill: #94a3b8; opacity: 0.75"/>
   </g>
   <g id="patch_61">
    <path d="M 436.400675 263.736979
L 437.57818 263.736979
L 437.57818 262.664928
L 436.400675 262.664928
z
" clip-path="url(#p75e5bcc352)" style="fill: #94a3b8; opacity: 0.75"/>
   </g>
   <g id="patch_62">
    <path d="M 440.521943 263.736979
L 441.699448 263.736979
L 441.699448 262.664928
L 440.521943 262.664928
z
" clip-path="url(#p75e5bcc352)" style="fill: #94a3b8; opacity: 0.75"/>
   </g>
   <g id="patch_63">
    <path d="M 444.643212 263.736979
L 445.820717 263.736979
L 445.820717 262.664928
L 444.643212 262.664928
z
" clip-path="url(#p75e5bcc352)" style="fill: #94a3b8; opacity: 0.75"/>
   </g>
   <g id="patch_64">
    <path d="M 419.915601 257.304672
L 421.093106 257.304672
L 421.093106 256.232621
L 419.915601 256.232621
z
" clip-path="url(#p75e5bcc352)" style="fill: #94a3b8; opacity: 0.75"/>
   </g>
   <g id="patch_65">
    <path d="M 424.036869 257.304672
L 425.214374 257.304672
L 425.214374 256.232621
L 424.036869 256.232621
z
" clip-path="url(#p75e5bcc352)" style="fill: #94a3b8; opacity: 0.75"/>
   </g>
   <g id="patch_66">
    <path d="M 428.158138 257.304672
L 429.335643 257.304672
L 429.335643 256.232621
L 428.158138 256.232621
z
" clip-path="url(#p75e5bcc352)" style="fill: #94a3b8; opacity: 0.75"/>
   </g>
   <g id="patch_67">
    <path d="M 432.279406 257.304672
L 433.456911 257.304672
L 433.456911 256.232621
L 432.279406 256.232621
z
" clip-path="url(#p75e5bcc352)" style="fill: #94a3b8; opacity: 0.75"/>
   </g>
   <g id="patch_68">
    <path d="M 436.400675 257.304672
L 437.57818 257.304672
L 437.57818 256.232621
L 436.400675 256.232621
z
" clip-path="url(#p75e5bcc352)" style="fill: #94a3b8; opacity: 0.75"/>
   </g>
   <g id="patch_69">
    <path d="M 440.521943 257.304672
L 441.699448 257.304672
L 441.699448 256.232621
L 440.521943 256.232621
z
" clip-path="url(#p75e5bcc352)" style="fill: #94a3b8; opacity: 0.75"/>
   </g>
   <g id="patch_70">
    <path d="M 444.643212 257.304672
L 445.820717 257.304672
L 445.820717 256.232621
L 444.643212 256.232621
z
" clip-path="url(#p75e5bcc352)" style="fill: #94a3b8; opacity: 0.75"/>
   </g>
   <g id="patch_71">
    <path d="M 419.915601 250.872365
L 421.093106 250.872365
L 421.093106 249.800314
L 419.915601 249.800314
z
" clip-path="url(#p75e5bcc352)" style="fill: #94a3b8; opacity: 0.75"/>
   </g>
   <g id="patch_72">
    <path d="M 424.036869 250.872365
L 425.214374 250.872365
L 425.214374 249.800314
L 424.036869 249.800314
z
" clip-path="url(#p75e5bcc352)" style="fill: #94a3b8; opacity: 0.75"/>
   </g>
   <g id="patch_73">
    <path d="M 428.158138 250.872365
L 429.335643 250.872365
L 429.335643 249.800314
L 428.158138 249.800314
z
" clip-path="url(#p75e5bcc352)" style="fill: #94a3b8; opacity: 0.75"/>
   </g>
   <g id="patch_74">
    <path d="M 432.279406 250.872365
L 433.456911 250.872365
L 433.456911 249.800314
L 432.279406 249.800314
z
" clip-path="url(#p75e5bcc352)" style="fill: #94a3b8; opacity: 0.75"/>
   </g>
   <g id="patch_75">
    <path d="M 436.400675 250.872365
L 437.57818 250.872365
L 437.57818 249.800314
L 436.400675 249.800314
z
" clip-path="url(#p75e5bcc352)" style="fill: #94a3b8; opacity: 0.75"/>
   </g>
   <g id="patch_76">
    <path d="M 440.521943 250.872365
L 441.699448 250.872365
L 441.699448 249.800314
L 440.521943 249.800314
z
" clip-path="url(#p75e5bcc352)" style="fill: #94a3b8; opacity: 0.75"/>
   </g>
   <g id="patch_77">
    <path d="M 444.643212 250.872365
L 445.820717 250.872365
L 445.820717 249.800314
L 444.643212 249.800314
z
" clip-path="url(#p75e5bcc352)" style="fill: #94a3b8; opacity: 0.75"/>
   </g>
   <g id="patch_78">
    <path d="M 419.915601 244.440058
L 421.093106 244.440058
L 421.093106 243.368006
L 419.915601 243.368006
z
" clip-path="url(#p75e5bcc352)" style="fill: #94a3b8; opacity: 0.75"/>
   </g>
   <g id="patch_79">
    <path d="M 424.036869 244.440058
L 425.214374 244.440058
L 425.214374 243.368006
L 424.036869 243.368006
z
" clip-path="url(#p75e5bcc352)" style="fill: #94a3b8; opacity: 0.75"/>
   </g>
   <g id="patch_80">
    <path d="M 428.158138 244.440058
L 429.335643 244.440058
L 429.335643 243.368006
L 428.158138 243.368006
z
" clip-path="url(#p75e5bcc352)" style="fill: #94a3b8; opacity: 0.75"/>
   </g>
   <g id="patch_81">
    <path d="M 432.279406 244.440058
L 433.456911 244.440058
L 433.456911 243.368006
L 432.279406 243.368006
z
" clip-path="url(#p75e5bcc352)" style="fill: #94a3b8; opacity: 0.75"/>
   </g>
   <g id="patch_82">
    <path d="M 436.400675 244.440058
L 437.57818 244.440058
L 437.57818 243.368006
L 436.400675 243.368006
z
" clip-path="url(#p75e5bcc352)" style="fill: #94a3b8; opacity: 0.75"/>
   </g>
   <g id="patch_83">
    <path d="M 440.521943 244.440058
L 441.699448 244.440058
L 441.699448 243.368006
L 440.521943 243.368006
z
" clip-path="url(#p75e5bcc352)" style="fill: #94a3b8; opacity: 0.75"/>
   </g>
   <g id="patch_84">
    <path d="M 444.643212 244.440058
L 445.820717 244.440058
L 445.820717 243.368006
L 444.643212 243.368006
z
" clip-path="url(#p75e5bcc352)" style="fill: #94a3b8; opacity: 0.75"/>
   </g>
   <g id="patch_85">
    <path d="M 419.915601 238.00775
L 421.093106 238.00775
L 421.093106 236.935699
L 419.915601 236.935699
z
" clip-path="url(#p75e5bcc352)" style="fill: #94a3b8; opacity: 0.75"/>
   </g>
   <g id="patch_86">
    <path d="M 424.036869 238.00775
L 425.214374 238.00775
L 425.214374 236.935699
L 424.036869 236.935699
z
" clip-path="url(#p75e5bcc352)" style="fill: #94a3b8; opacity: 0.75"/>
   </g>
   <g id="patch_87">
    <path d="M 428.158138 238.00775
L 429.335643 238.00775
L 429.335643 236.935699
L 428.158138 236.935699
z
" clip-path="url(#p75e5bcc352)" style="fill: #94a3b8; opacity: 0.75"/>
   </g>
   <g id="patch_88">
    <path d="M 432.279406 238.00775
L 433.456911 238.00775
L 433.456911 236.935699
L 432.279406 236.935699
z
" clip-path="url(#p75e5bcc352)" style="fill: #94a3b8; opacity: 0.75"/>
   </g>
   <g id="patch_89">
    <path d="M 436.400675 238.00775
L 437.57818 238.00775
L 437.57818 236.935699
L 436.400675 236.935699
z
" clip-path="url(#p75e5bcc352)" style="fill: #94a3b8; opacity: 0.75"/>
   </g>
   <g id="patch_90">
    <path d="M 440.521943 238.00775
L 441.699448 238.00775
L 441.699448 236.935699
L 440.521943 236.935699
z
" clip-path="url(#p75e5bcc352)" style="fill: #94a3b8; opacity: 0.75"/>
   </g>
   <g id="patch_91">
    <path d="M 444.643212 238.00775
L 445.820717 238.00775
L 445.820717 236.935699
L 444.643212 236.935699
z
" clip-path="url(#p75e5bcc352)" style="fill: #94a3b8; opacity: 0.75"/>
   </g>
   <g id="patch_92">
    <path d="M 419.915601 231.575443
L 421.093106 231.575443
L 421.093106 230.503392
L 419.915601 230.503392
z
" clip-path="url(#p75e5bcc352)" style="fill: #94a3b8; opacity: 0.75"/>
   </g>
   <g id="patch_93">
    <path d="M 424.036869 231.575443
L 425.214374 231.575443
L 425.214374 230.503392
L 424.036869 230.503392
z
" clip-path="url(#p75e5bcc352)" style="fill: #94a3b8; opacity: 0.75"/>
   </g>
   <g id="patch_94">
    <path d="M 428.158138 231.575443
L 429.335643 231.575443
L 429.335643 230.503392
L 428.158138 230.503392
z
" clip-path="url(#p75e5bcc352)" style="fill: #94a3b8; opacity: 0.75"/>
   </g>
   <g id="patch_95">
    <path d="M 432.279406 231.575443
L 433.456911 231.575443
L 433.456911 230.503392
L 432.279406 230.503392
z
" clip-path="url(#p75e5bcc352)" style="fill: #94a3b8; opacity: 0.75"/>
   </g>
   <g id="patch_96">
    <path d="M 436.400675 231.575443
L 437.57818 231.575443
L 437.57818 230.503392
L 436.400675 230.503392
z
" clip-path="url(#p75e5bcc352)" style="fill: #94a3b8; opacity: 0.75"/>
   </g>
   <g id="patch_97">
    <path d="M 440.521943 231.575443
L 441.699448 231.575443
L 441.699448 230.503392
L 440.521943 230.503392
z
" clip-path="url(#p75e5bcc352)" style="fill: #94a3b8; opacity: 0.75"/>
   </g>
   <g id="patch_98">
    <path d="M 444.643212 231.575443
L 445.820717 231.575443
L 445.820717 230.503392
L 444.643212 230.503392
z
" clip-path="url(#p75e5bcc352)" style="fill: #94a3b8; opacity: 0.75"/>
   </g>
   <g id="patch_99">
    <path d="M 470.768383 226.462418
L 470.732426 230.235791
L 477.393304 230.256161
L 477.429261 226.482788
z
" clip-path="url(#p75e5bcc352)" style="fill: #22c55e; opacity: 0.86; stroke: #0f172a; stroke-width: 0.45; stroke-linejoin: miter"/>
   </g>
   <g id="patch_100">
    <path d="M 470.768383 241.471135
L 470.732426 245.244508
L 477.393304 245.264878
L 477.429261 241.491505
z
" clip-path="url(#p75e5bcc352)" style="fill: #3b82f6; opacity: 0.86; stroke: #0f172a; stroke-width: 0.45; stroke-linejoin: miter"/>
   </g>
   <g id="patch_101">
    <path d="M 470.768383 256.479852
L 470.732426 260.253225
L 477.393304 260.273594
L 477.429261 256.500222
z
" clip-path="url(#p75e5bcc352)" style="fill: #8b5cf6; opacity: 0.86; stroke: #0f172a; stroke-width: 0.45; stroke-linejoin: miter"/>
   </g>
   <g id="patch_102">
    <path d="M 431.858868 291.729427
L 495.107724 291.729427
Q 505.621164 291.729427 505.621164 285.773587
L 505.621164 283.510368
Q 505.621164 277.554528 495.107724 277.554528
L 431.858868 277.554528
Q 421.345428 277.554528 421.345428 283.510368
L 421.345428 285.773587
Q 421.345428 291.729427 431.858868 291.729427
z
" clip-path="url(#p75e5bcc352)" style="fill: #ecfdf5; stroke: #166534; stroke-width: 0.8; stroke-linejoin: miter"/>
   </g>
   <g id="line2d_1">
    <path d="M 78.691392 150.695136
L 78.691392 89.588218
" clip-path="url(#p75e5bcc352)" style="fill: none; stroke: #cbd5e1; stroke-width: 0.85; stroke-linecap: square"/>
   </g>
   <g id="line2d_2">
    <path d="M 39.244965 105.668986
L 39.244965 94.948474
" clip-path="url(#p75e5bcc352)" style="fill: none; stroke: #94a3b8; stroke-width: 0.45; stroke-linecap: square"/>
   </g>
   <g id="line2d_3">
    <path d="M 45.721244 105.668986
L 45.721244 94.948474
" clip-path="url(#p75e5bcc352)" style="fill: none; stroke: #94a3b8; stroke-width: 0.45; stroke-linecap: square"/>
   </g>
   <g id="line2d_4">
    <path d="M 52.197523 105.668986
L 52.197523 94.948474
" clip-path="url(#p75e5bcc352)" style="fill: none; stroke: #94a3b8; stroke-width: 0.45; stroke-linecap: square"/>
   </g>
   <g id="line2d_5">
    <path d="M 32.768686 102.095482
L 58.673802 102.095482
" clip-path="url(#p75e5bcc352)" style="fill: none; stroke: #94a3b8; stroke-width: 0.45; stroke-linecap: square"/>
   </g>
   <g id="line2d_6">
    <path d="M 32.768686 98.521978
L 58.673802 98.521978
" clip-path="url(#p75e5bcc352)" style="fill: none; stroke: #94a3b8; stroke-width: 0.45; stroke-linecap: square"/>
   </g>
   <g id="line2d_7">
    <path d="M 95.470842 105.668986
L 95.470842 94.948474
" clip-path="url(#p75e5bcc352)" style="fill: none; stroke: #94a3b8; stroke-width: 0.45; stroke-linecap: square"/>
   </g>
   <g id="line2d_8">
    <path d="M 101.652745 105.668986
L 101.652745 94.948474
" clip-path="url(#p75e5bcc352)" style="fill: none; stroke: #94a3b8; stroke-width: 0.45; stroke-linecap: square"/>
   </g>
   <g id="line2d_9">
    <path d="M 107.834648 105.668986
L 107.834648 94.948474
" clip-path="url(#p75e5bcc352)" style="fill: none; stroke: #94a3b8; stroke-width: 0.45; stroke-linecap: square"/>
   </g>
   <g id="line2d_10">
    <path d="M 89.28894 102.095482
L 114.01655 102.095482
" clip-path="url(#p75e5bcc352)" style="fill: none; stroke: #94a3b8; stroke-width: 0.45; stroke-linecap: square"/>
   </g>
   <g id="line2d_11">
    <path d="M 89.28894 98.521978
L 114.01655 98.521978
" clip-path="url(#p75e5bcc352)" style="fill: none; stroke: #94a3b8; stroke-width: 0.45; stroke-linecap: square"/>
   </g>
   <g id="line2d_12">
    <path d="M 39.244965 122.821805
L 39.244965 112.101293
" clip-path="url(#p75e5bcc352)" style="fill: none; stroke: #94a3b8; stroke-width: 0.45; stroke-linecap: square"/>
   </g>
   <g id="line2d_13">
    <path d="M 45.721244 122.821805
L 45.721244 112.101293
" clip-path="url(#p75e5bcc352)" style="fill: none; stroke: #94a3b8; stroke-width: 0.45; stroke-linecap: square"/>
   </g>
   <g id="line2d_14">
    <path d="M 52.197523 122.821805
L 52.197523 112.101293
" clip-path="url(#p75e5bcc352)" style="fill: none; stroke: #94a3b8; stroke-width: 0.45; stroke-linecap: square"/>
   </g>
   <g id="line2d_15">
    <path d="M 32.768686 119.248301
L 58.673802 119.248301
" clip-path="url(#p75e5bcc352)" style="fill: none; stroke: #94a3b8; stroke-width: 0.45; stroke-linecap: square"/>
   </g>
   <g id="line2d_16">
    <path d="M 32.768686 115.674797
L 58.673802 115.674797
" clip-path="url(#p75e5bcc352)" style="fill: none; stroke: #94a3b8; stroke-width: 0.45; stroke-linecap: square"/>
   </g>
   <g id="line2d_17">
    <path d="M 95.470842 122.821805
L 95.470842 112.101293
" clip-path="url(#p75e5bcc352)" style="fill: none; stroke: #94a3b8; stroke-width: 0.45; stroke-linecap: square"/>
   </g>
   <g id="line2d_18">
    <path d="M 101.652745 122.821805
L 101.652745 112.101293
" clip-path="url(#p75e5bcc352)" style="fill: none; stroke: #94a3b8; stroke-width: 0.45; stroke-linecap: square"/>
   </g>
   <g id="line2d_19">
    <path d="M 107.834648 122.821805
L 107.834648 112.101293
" clip-path="url(#p75e5bcc352)" style="fill: none; stroke: #94a3b8; stroke-width: 0.45; stroke-linecap: square"/>
   </g>
   <g id="line2d_20">
    <path d="M 89.28894 119.248301
L 114.01655 119.248301
" clip-path="url(#p75e5bcc352)" style="fill: none; stroke: #94a3b8; stroke-width: 0.45; stroke-linecap: square"/>
   </g>
   <g id="line2d_21">
    <path d="M 89.28894 115.674797
L 114.01655 115.674797
" clip-path="url(#p75e5bcc352)" style="fill: none; stroke: #94a3b8; stroke-width: 0.45; stroke-linecap: square"/>
   </g>
   <g id="line2d_22">
    <path d="M 39.244965 139.974624
L 39.244965 129.254112
" clip-path="url(#p75e5bcc352)" style="fill: none; stroke: #94a3b8; stroke-width: 0.45; stroke-linecap: square"/>
   </g>
   <g id="line2d_23">
    <path d="M 45.721244 139.974624
L 45.721244 129.254112
" clip-path="url(#p75e5bcc352)" style="fill: none; stroke: #94a3b8; stroke-width: 0.45; stroke-linecap: square"/>
   </g>
   <g id="line2d_24">
    <path d="M 52.197523 139.974624
L 52.197523 129.254112
" clip-path="url(#p75e5bcc352)" style="fill: none; stroke: #94a3b8; stroke-width: 0.45; stroke-linecap: square"/>
   </g>
   <g id="line2d_25">
    <path d="M 32.768686 136.40112
L 58.673802 136.40112
" clip-path="url(#p75e5bcc352)" style="fill: none; stroke: #94a3b8; stroke-width: 0.45; stroke-linecap: square"/>
   </g>
   <g id="line2d_26">
    <path d="M 32.768686 132.827616
L 58.673802 132.827616
" clip-path="url(#p75e5bcc352)" style="fill: none; stroke: #94a3b8; stroke-width: 0.45; stroke-linecap: square"/>
   </g>
   <g id="line2d_27">
    <path d="M 95.470842 139.974624
L 95.470842 129.254112
" clip-path="url(#p75e5bcc352)" style="fill: none; stroke: #94a3b8; stroke-width: 0.45; stroke-linecap: square"/>
   </g>
   <g id="line2d_28">
    <path d="M 101.652745 139.974624
L 101.652745 129.254112
" clip-path="url(#p75e5bcc352)" style="fill: none; stroke: #94a3b8; stroke-width: 0.45; stroke-linecap: square"/>
   </g>
   <g id="line2d_29">
    <path d="M 107.834648 139.974624
L 107.834648 129.254112
" clip-path="url(#p75e5bcc352)" style="fill: none; stroke: #94a3b8; stroke-width: 0.45; stroke-linecap: square"/>
   </g>
   <g id="line2d_30">
    <path d="M 89.28894 136.40112
L 114.01655 136.40112
" clip-path="url(#p75e5bcc352)" style="fill: none; stroke: #94a3b8; stroke-width: 0.45; stroke-linecap: square"/>
   </g>
   <g id="line2d_31">
    <path d="M 89.28894 132.827616
L 114.01655 132.827616
" clip-path="url(#p75e5bcc352)" style="fill: none; stroke: #94a3b8; stroke-width: 0.45; stroke-linecap: square"/>
   </g>
   <g id="line2d_32">
    <path d="M 174.927216 102.452832
L 174.927216 88.516166
" clip-path="url(#p75e5bcc352)" style="fill: none; stroke: #94a3b8; stroke-width: 0.45; stroke-linecap: square"/>
   </g>
   <g id="line2d_33">
    <path d="M 182.934252 102.452832
L 182.934252 88.516166
" clip-path="url(#p75e5bcc352)" style="fill: none; stroke: #94a3b8; stroke-width: 0.45; stroke-linecap: square"/>
   </g>
   <g id="line2d_34">
    <path d="M 190.941288 102.452832
L 190.941288 88.516166
" clip-path="url(#p75e5bcc352)" style="fill: none; stroke: #94a3b8; stroke-width: 0.45; stroke-linecap: square"/>
   </g>
   <g id="line2d_35">
    <path d="M 198.948324 102.452832
L 198.948324 88.516166
" clip-path="url(#p75e5bcc352)" style="fill: none; stroke: #94a3b8; stroke-width: 0.45; stroke-linecap: square"/>
   </g>
   <g id="line2d_36">
    <path d="M 166.92018 98.968666
L 206.95536 98.968666
" clip-path="url(#p75e5bcc352)" style="fill: none; stroke: #94a3b8; stroke-width: 0.45; stroke-linecap: square"/>
   </g>
   <g id="line2d_37">
    <path d="M 166.92018 95.484499
L 206.95536 95.484499
" clip-path="url(#p75e5bcc352)" style="fill: none; stroke: #94a3b8; stroke-width: 0.45; stroke-linecap: square"/>
   </g>
   <g id="line2d_38">
    <path d="M 166.92018 92.000333
L 206.95536 92.000333
" clip-path="url(#p75e5bcc352)" style="fill: none; stroke: #94a3b8; stroke-width: 0.45; stroke-linecap: square"/>
   </g>
   <g id="line2d_39">
    <path d="M 174.927216 121.749754
L 174.927216 107.813088
" clip-path="url(#p75e5bcc352)" style="fill: none; stroke: #94a3b8; stroke-width: 0.45; stroke-linecap: square"/>
   </g>
   <g id="line2d_40">
    <path d="M 182.934252 121.749754
L 182.934252 107.813088
" clip-path="url(#p75e5bcc352)" style="fill: none; stroke: #94a3b8; stroke-width: 0.45; stroke-linecap: square"/>
   </g>
   <g id="line2d_41">
    <path d="M 190.941288 121.749754
L 190.941288 107.813088
" clip-path="url(#p75e5bcc352)" style="fill: none; stroke: #94a3b8; stroke-width: 0.45; stroke-linecap: square"/>
   </g>
   <g id="line2d_42">
    <path d="M 198.948324 121.749754
L 198.948324 107.813088
" clip-path="url(#p75e5bcc352)" style="fill: none; stroke: #94a3b8; stroke-width: 0.45; stroke-linecap: square"/>
   </g>
   <g id="line2d_43">
    <path d="M 166.92018 118.265587
L 206.95536 118.265587
" clip-path="url(#p75e5bcc352)" style="fill: none; stroke: #94a3b8; stroke-width: 0.45; stroke-linecap: square"/>
   </g>
   <g id="line2d_44">
    <path d="M 166.92018 114.781421
L 206.95536 114.781421
" clip-path="url(#p75e5bcc352)" style="fill: none; stroke: #94a3b8; stroke-width: 0.45; stroke-linecap: square"/>
   </g>
   <g id="line2d_45">
    <path d="M 166.92018 111.297254
L 206.95536 111.297254
" clip-path="url(#p75e5bcc352)" style="fill: none; stroke: #94a3b8; stroke-width: 0.45; stroke-linecap: square"/>
   </g>
   <g id="line2d_46">
    <path d="M 174.927216 141.046675
L 174.927216 127.11001
" clip-path="url(#p75e5bcc352)" style="fill: none; stroke: #94a3b8; stroke-width: 0.45; stroke-linecap: square"/>
   </g>
   <g id="line2d_47">
    <path d="M 182.934252 141.046675
L 182.934252 127.11001
" clip-path="url(#p75e5bcc352)" style="fill: none; stroke: #94a3b8; stroke-width: 0.45; stroke-linecap: square"/>
   </g>
   <g id="line2d_48">
    <path d="M 190.941288 141.046675
L 190.941288 127.11001
" clip-path="url(#p75e5bcc352)" style="fill: none; stroke: #94a3b8; stroke-width: 0.45; stroke-linecap: square"/>
   </g>
   <g id="line2d_49">
    <path d="M 198.948324 141.046675
L 198.948324 127.11001
" clip-path="url(#p75e5bcc352)" style="fill: none; stroke: #94a3b8; stroke-width: 0.45; stroke-linecap: square"/>
   </g>
   <g id="line2d_50">
    <path d="M 166.92018 137.562509
L 206.95536 137.562509
" clip-path="url(#p75e5bcc352)" style="fill: none; stroke: #94a3b8; stroke-width: 0.45; stroke-linecap: square"/>
   </g>
   <g id="line2d_51">
    <path d="M 166.92018 134.078342
L 206.95536 134.078342
" clip-path="url(#p75e5bcc352)" style="fill: none; stroke: #94a3b8; stroke-width: 0.45; stroke-linecap: square"/>
   </g>
   <g id="line2d_52">
    <path d="M 166.92018 130.594176
L 206.95536 130.594176
" clip-path="url(#p75e5bcc352)" style="fill: none; stroke: #94a3b8; stroke-width: 0.45; stroke-linecap: square"/>
   </g>
   <g id="line2d_53">
    <path d="M 298.716664 157.127443
L 371.721992 157.127443
" clip-path="url(#p75e5bcc352)" style="fill: none; stroke: #b91c1c; stroke-width: 0.9; stroke-linecap: square"/>
   </g>
   <g id="line2d_54">
    <path d="M 37.949709 241.223904
L 37.949709 221.926982
" clip-path="url(#p75e5bcc352)" style="fill: none; stroke: #94a3b8; stroke-width: 0.45; stroke-linecap: square"/>
   </g>
   <g id="line2d_55">
    <path d="M 44.308238 241.223904
L 44.308238 221.926982
" clip-path="url(#p75e5bcc352)" style="fill: none; stroke: #94a3b8; stroke-width: 0.45; stroke-linecap: square"/>
   </g>
   <g id="line2d_56">
    <path d="M 50.666766 241.223904
L 50.666766 221.926982
" clip-path="url(#p75e5bcc352)" style="fill: none; stroke: #94a3b8; stroke-width: 0.45; stroke-linecap: square"/>
   </g>
   <g id="line2d_57">
    <path d="M 57.025295 241.223904
L 57.025295 221.926982
" clip-path="url(#p75e5bcc352)" style="fill: none; stroke: #94a3b8; stroke-width: 0.45; stroke-linecap: square"/>
   </g>
   <g id="line2d_58">
    <path d="M 31.591181 236.399674
L 63.383823 236.399674
" clip-path="url(#p75e5bcc352)" style="fill: none; stroke: #94a3b8; stroke-width: 0.45; stroke-linecap: square"/>
   </g>
   <g id="line2d_59">
    <path d="M 31.591181 231.575443
L 63.383823 231.575443
" clip-path="url(#p75e5bcc352)" style="fill: none; stroke: #94a3b8; stroke-width: 0.45; stroke-linecap: square"/>
   </g>
   <g id="line2d_60">
    <path d="M 31.591181 226.751213
L 63.383823 226.751213
" clip-path="url(#p75e5bcc352)" style="fill: none; stroke: #94a3b8; stroke-width: 0.45; stroke-linecap: square"/>
   </g>
   <g id="line2d_61">
    <path d="M 90.937447 241.223904
L 90.937447 221.926982
" clip-path="url(#p75e5bcc352)" style="fill: none; stroke: #94a3b8; stroke-width: 0.45; stroke-linecap: square"/>
   </g>
   <g id="line2d_62">
    <path d="M 97.295975 241.223904
L 97.295975 221.926982
" clip-path="url(#p75e5bcc352)" style="fill: none; stroke: #94a3b8; stroke-width: 0.45; stroke-linecap: square"/>
   </g>
   <g id="line2d_63">
    <path d="M 103.654504 241.223904
L 103.654504 221.926982
" clip-path="url(#p75e5bcc352)" style="fill: none; stroke: #94a3b8; stroke-width: 0.45; stroke-linecap: square"/>
   </g>
   <g id="line2d_64">
    <path d="M 110.013032 241.223904
L 110.013032 221.926982
" clip-path="url(#p75e5bcc352)" style="fill: none; stroke: #94a3b8; stroke-width: 0.45; stroke-linecap: square"/>
   </g>
   <g id="line2d_65">
    <path d="M 84.578918 236.399674
L 116.371561 236.399674
" clip-path="url(#p75e5bcc352)" style="fill: none; stroke: #94a3b8; stroke-width: 0.45; stroke-linecap: square"/>
   </g>
   <g id="line2d_66">
    <path d="M 84.578918 231.575443
L 116.371561 231.575443
" clip-path="url(#p75e5bcc352)" style="fill: none; stroke: #94a3b8; stroke-width: 0.45; stroke-linecap: square"/>
   </g>
   <g id="line2d_67">
    <path d="M 84.578918 226.751213
L 116.371561 226.751213
" clip-path="url(#p75e5bcc352)" style="fill: none; stroke: #94a3b8; stroke-width: 0.45; stroke-linecap: square"/>
   </g>
   <g id="line2d_68">
    <path d="M 296.067277 229.431341
L 296.067277 217.638778
" clip-path="url(#p75e5bcc352)" style="fill: none; stroke: #94a3b8; stroke-width: 0.45; stroke-linecap: square"/>
   </g>
   <g id="line2d_69">
    <path d="M 301.660428 229.431341
L 301.660428 217.638778
" clip-path="url(#p75e5bcc352)" style="fill: none; stroke: #94a3b8; stroke-width: 0.45; stroke-linecap: square"/>
   </g>
   <g id="line2d_70">
    <path d="M 307.253578 229.431341
L 307.253578 217.638778
" clip-path="url(#p75e5bcc352)" style="fill: none; stroke: #94a3b8; stroke-width: 0.45; stroke-linecap: square"/>
   </g>
   <g id="line2d_71">
    <path d="M 290.474127 225.500486
L 312.846728 225.500486
" clip-path="url(#p75e5bcc352)" style="fill: none; stroke: #94a3b8; stroke-width: 0.45; stroke-linecap: square"/>
   </g>
   <g id="line2d_72">
    <path d="M 290.474127 221.569632
L 312.846728 221.569632
" clip-path="url(#p75e5bcc352)" style="fill: none; stroke: #94a3b8; stroke-width: 0.45; stroke-linecap: square"/>
   </g>
   <g id="line2d_73">
    <path d="M 296.067277 245.512109
L 296.067277 233.719546
" clip-path="url(#p75e5bcc352)" style="fill: none; stroke: #94a3b8; stroke-width: 0.45; stroke-linecap: square"/>
   </g>
   <g id="line2d_74">
    <path d="M 301.660428 245.512109
L 301.660428 233.719546
" clip-path="url(#p75e5bcc352)" style="fill: none; stroke: #94a3b8; stroke-width: 0.45; stroke-linecap: square"/>
   </g>
   <g id="line2d_75">
    <path d="M 307.253578 245.512109
L 307.253578 233.719546
" clip-path="url(#p75e5bcc352)" style="fill: none; stroke: #94a3b8; stroke-width: 0.45; stroke-linecap: square"/>
   </g>
   <g id="line2d_76">
    <path d="M 290.474127 241.581254
L 312.846728 241.581254
" clip-path="url(#p75e5bcc352)" style="fill: none; stroke: #94a3b8; stroke-width: 0.45; stroke-linecap: square"/>
   </g>
   <g id="line2d_77">
    <path d="M 290.474127 237.6504
L 312.846728 237.6504
" clip-path="url(#p75e5bcc352)" style="fill: none; stroke: #94a3b8; stroke-width: 0.45; stroke-linecap: square"/>
   </g>
   <g id="line2d_78">
    <path d="M 296.067277 261.592877
L 296.067277 249.800314
" clip-path="url(#p75e5bcc352)" style="fill: none; stroke: #94a3b8; stroke-width: 0.45; stroke-linecap: square"/>
   </g>
   <g id="line2d_79">
    <path d="M 301.660428 261.592877
L 301.660428 249.800314
" clip-path="url(#p75e5bcc352)" style="fill: none; stroke: #94a3b8; stroke-width: 0.45; stroke-linecap: square"/>
   </g>
   <g id="line2d_80">
    <path d="M 307.253578 261.592877
L 307.253578 249.800314
" clip-path="url(#p75e5bcc352)" style="fill: none; stroke: #94a3b8; stroke-width: 0.45; stroke-linecap: square"/>
   </g>
   <g id="line2d_81">
    <path d="M 290.474127 257.662022
L 312.846728 257.662022
" clip-path="url(#p75e5bcc352)" style="fill: none; stroke: #94a3b8; stroke-width: 0.45; stroke-linecap: square"/>
   </g>
   <g id="line2d_82">
    <path d="M 290.474127 253.731168
L 312.846728 253.731168
" clip-path="url(#p75e5bcc352)" style="fill: none; stroke: #94a3b8; stroke-width: 0.45; stroke-linecap: square"/>
   </g>
   <g id="line2d_83">
    <path d="M 459.95078 271.241338
L 459.95078 217.638778
" clip-path="url(#p75e5bcc352)" style="fill: none; stroke: #cbd5e1; stroke-width: 0.8; stroke-linecap: square"/>
   </g>
   <g id="text_1">
    <text style="font-weight: 700; font-size: 6.2px; font-family: 'DejaVu Sans'; text-anchor: middle; fill: #ffffff" x="34.009272" y="76.0223" transform="rotate(-0 34.009272 76.0223)">1</text>
   </g>
   <g id="text_2">
    <text style="font-weight: 700; font-size: 7.35px; font-family: 'DejaVu Sans'; text-anchor: start; fill: #0f172a" x="47.151072" y="77.6629" transform="rotate(-0 47.151072 77.6629)">REPEATED VIDEO</text>
   </g>
   <g id="text_3">
    <text style="font-weight: 700; font-size: 5.9px; font-family: 'DejaVu Sans'; text-anchor: middle; fill: #b91c1c" x="49.25376" y="87.444115" transform="rotate(-0 49.25376 87.444115)">stateless</text>
   </g>
   <g id="text_4">
    <text style="font-weight: 700; font-size: 5.9px; font-family: 'DejaVu Sans'; text-anchor: middle; fill: #166534" x="108.129024" y="87.444115" transform="rotate(-0 108.129024 87.444115)">stateful</text>
   </g>
   <g id="patch_103">
    <path d="M 61.028813 100.30873
Q 65.738834 100.30873 69.722133 100.30873
" style="fill: none; stroke: #64748b; stroke-width: 0.65; stroke-linecap: round"/>
    <path d="M 65.322133 98.10873
L 69.722133 100.30873
L 65.322133 102.50873
" style="fill: none; stroke: #64748b; stroke-width: 0.65; stroke-linecap: round"/>
   </g>
   <g id="patch_104">
    <path d="M 61.028813 117.461549
Q 65.738834 117.461549 69.722133 117.461549
" style="fill: none; stroke: #64748b; stroke-width: 0.65; stroke-linecap: round"/>
    <path d="M 65.322133 115.261549
L 69.722133 117.461549
L 65.322133 119.661549
" style="fill: none; stroke: #64748b; stroke-width: 0.65; stroke-linecap: round"/>
   </g>
   <g id="patch_105">
    <path d="M 61.028813 134.614368
Q 65.738834 134.614368 69.722133 134.614368
" style="fill: none; stroke: #64748b; stroke-width: 0.65; stroke-linecap: round"/>
    <path d="M 65.322133 132.414368
L 69.722133 134.614368
L 65.322133 136.814368
" style="fill: none; stroke: #64748b; stroke-width: 0.65; stroke-linecap: round"/>
   </g>
   <g id="text_5">
    <text style="font-weight: 700; font-size: 6.3px; font-family: 'DejaVu Sans'; text-anchor: middle; fill: #b91c1c" x="49.25376" y="160.343597" transform="rotate(-0 49.25376 160.343597)">pay again</text>
   </g>
   <g id="text_6">
    <text style="font-weight: 700; font-size: 6.3px; font-family: 'DejaVu Sans'; text-anchor: middle; fill: #166534" x="108.129024" y="160.343597" transform="rotate(-0 108.129024 160.343597)">buy deltas</text>
   </g>
   <g id="text_7">
    <text style="font-weight: 700; font-size: 6.2px; font-family: 'DejaVu Sans'; text-anchor: middle; fill: #ffffff" x="162.27324" y="76.0223" transform="rotate(-0 162.27324 76.0223)">2</text>
   </g>
   <g id="text_8">
    <text style="font-weight: 700; font-size: 7.35px; font-family: 'DejaVu Sans'; text-anchor: start; fill: #0f172a" x="175.41504" y="77.6629" transform="rotate(-0 175.41504 77.6629)">CODEC CLUE</text>
   </g>
   <g id="text_9">
    <text style="font-size: 5.9px; font-family: 'DejaVu Sans'; fill: #334155" transform="translate(218.730413 93.809176)">previous</text>
    <text style="font-size: 5.9px; font-family: 'DejaVu Sans'; fill: #334155" transform="translate(218.730413 100.415885)">frame</text>
   </g>
   <g id="text_10">
    <text style="font-size: 5.9px; font-family: 'DejaVu Sans'; fill: #334155" transform="translate(218.730413 113.106097)">motion +</text>
    <text style="font-size: 5.9px; font-family: 'DejaVu Sans'; fill: #334155" transform="translate(218.730413 119.712807)">residual</text>
   </g>
   <g id="text_11">
    <text style="font-size: 5.9px; font-family: 'DejaVu Sans'; fill: #334155" transform="translate(218.730413 132.403019)">changed</text>
    <text style="font-size: 5.9px; font-family: 'DejaVu Sans'; fill: #334155" transform="translate(218.730413 139.009728)">blocks</text>
   </g>
   <g id="patch_106">
    <path d="M 186.93777 106.741037
Q 186.93777 110.493216 186.93777 113.350968
" style="fill: none; stroke: #64748b; stroke-width: 0.8; stroke-linecap: round"/>
    <path d="M 189.13777 108.950968
L 186.93777 113.350968
L 184.73777 108.950968
" style="fill: none; stroke: #64748b; stroke-width: 0.8; stroke-linecap: round"/>
   </g>
   <g id="patch_107">
    <path d="M 186.93777 126.037958
Q 186.93777 129.790138 186.93777 132.64789
" style="fill: none; stroke: #64748b; stroke-width: 0.8; stroke-linecap: round"/>
    <path d="M 189.13777 128.24789
L 186.93777 132.64789
L 184.73777 128.24789
" style="fill: none; stroke: #64748b; stroke-width: 0.8; stroke-linecap: round"/>
   </g>
   <g id="text_12">
    <text style="font-weight: 700; font-size: 6.2px; font-family: 'DejaVu Sans'; text-anchor: middle; fill: #64748b" x="206.95536" y="159.271546" transform="rotate(-0 206.95536 159.271546)">change is local</text>
   </g>
   <g id="text_13">
    <text style="font-weight: 700; font-size: 6.2px; font-family: 'DejaVu Sans'; text-anchor: middle; fill: #ffffff" x="290.537208" y="76.0223" transform="rotate(-0 290.537208 76.0223)">3</text>
   </g>
   <g id="text_14">
    <text style="font-weight: 700; font-size: 7.35px; font-family: 'DejaVu Sans'; text-anchor: start; fill: #b91c1c" x="303.679008" y="77.6629" transform="rotate(-0 303.679008 77.6629)">VLM LOOP</text>
   </g>
   <g id="text_15">
    <text style="font-size: 8px; font-family: 'DejaVu Sans'; text-anchor: middle; fill: #111827" x="299.89417" y="110.556614" transform="rotate(-0 299.89417 110.556614)">▶</text>
   </g>
   <g id="patch_108">
    <path d="M 312.846728 108.885139
Q 318.145501 108.885139 322.549848 108.885139
" style="fill: none; stroke: #334155; stroke-width: 0.8; stroke-linecap: round"/>
    <path d="M 318.149848 106.685139
L 322.549848 108.885139
L 318.149848 111.085139
" style="fill: none; stroke: #334155; stroke-width: 0.8; stroke-linecap: round"/>
   </g>
   <g id="patch_109">
    <path d="M 349.349391 108.885139
Q 354.059412 108.885139 357.875006 108.885139
" style="fill: none; stroke: #334155; stroke-width: 0.8; stroke-linecap: round"/>
    <path d="M 353.475006 106.685139
L 357.875006 108.885139
L 353.475006 111.085139
" style="fill: none; stroke: #334155; stroke-width: 0.8; stroke-linecap: round"/>
   </g>
   <g id="text_16">
    <text style="font-size: 5.7px; font-family: 'DejaVu Sans'; text-anchor: middle; fill: #111827" x="367.600723" y="110.457983" transform="rotate(-0 367.600723 110.457983)">ViT</text>
   </g>
   <g id="text_17">
    <text style="font-weight: 700; font-size: 6.2px; font-family: 'DejaVu Sans'; fill: #b91c1c" transform="translate(322.415359 124.455571)">discard</text>
    <text style="font-weight: 700; font-size: 6.2px; font-family: 'DejaVu Sans'; fill: #b91c1c" transform="translate(326.21625 131.398214)">state</text>
   </g>
   <g id="text_18">
    <text style="font-weight: 700; font-size: 6.3px; font-family: 'DejaVu Sans'; text-anchor: middle; fill: #b91c1c" x="335.219328" y="152.839238" transform="rotate(-0 335.219328 152.839238)">rebuild every query</text>
   </g>
   <g id="text_19">
    <text style="font-weight: 700; font-size: 6.2px; font-family: 'DejaVu Sans'; text-anchor: middle; fill: #ffffff" x="418.801176" y="76.0223" transform="rotate(-0 418.801176 76.0223)">4</text>
   </g>
   <g id="text_20">
    <text style="font-weight: 700; font-size: 7.35px; font-family: 'DejaVu Sans'; text-anchor: start; fill: #166534" x="431.942976" y="77.6629" transform="rotate(-0 431.942976 77.6629)">C-PERSIST</text>
   </g>
   <g id="text_21">
    <text style="font-size: 6.3px; font-family: 'DejaVu Sans'; text-anchor: start; fill: #334155" x="417.56059" y="102.047136" transform="rotate(-0 417.56059 102.047136)">Q1</text>
   </g>
   <g id="patch_110">
    <path d="M 430.513148 100.30873
Q 437.57818 100.30873 443.804686 100.30873
" style="fill: none; stroke: #64748b; stroke-width: 0.75; stroke-linecap: round"/>
    <path d="M 439.404686 98.10873
L 443.804686 100.30873
L 439.404686 102.50873
" style="fill: none; stroke: #64748b; stroke-width: 0.75; stroke-linecap: round"/>
   </g>
   <g id="text_22">
    <text style="font-size: 5.4px; font-family: 'DejaVu Sans'; text-anchor: middle; fill: #111827" x="460.539533" y="101.798792" transform="rotate(-0 460.539533 101.798792)">full</text>
   </g>
   <g id="text_23">
    <text style="font-size: 6.3px; font-family: 'DejaVu Sans'; text-anchor: start; fill: #334155" x="417.56059" y="120.272006" transform="rotate(-0 417.56059 120.272006)">Q2</text>
   </g>
   <g id="patch_111">
    <path d="M 430.513148 118.5336
Q 437.57818 118.5336 443.804686 118.5336
" style="fill: none; stroke: #64748b; stroke-width: 0.75; stroke-linecap: round"/>
    <path d="M 439.404686 116.3336
L 443.804686 118.5336
L 439.404686 120.7336
" style="fill: none; stroke: #64748b; stroke-width: 0.75; stroke-linecap: round"/>
   </g>
   <g id="text_24">
    <text style="font-size: 5.4px; font-family: 'DejaVu Sans'; text-anchor: middle; fill: #111827" x="460.539533" y="120.023662" transform="rotate(-0 460.539533 120.023662)">repair</text>
   </g>
   <g id="text_25">
    <text style="font-size: 6.3px; font-family: 'DejaVu Sans'; text-anchor: start; fill: #334155" x="417.56059" y="138.496877" transform="rotate(-0 417.56059 138.496877)">Q3</text>
   </g>
   <g id="patch_112">
    <path d="M 430.513148 136.75847
Q 437.57818 136.75847 443.804686 136.75847
" style="fill: none; stroke: #64748b; stroke-width: 0.75; stroke-linecap: round"/>
    <path d="M 439.404686 134.55847
L 443.804686 136.75847
L 439.404686 138.95847
" style="fill: none; stroke: #64748b; stroke-width: 0.75; stroke-linecap: round"/>
   </g>
   <g id="text_26">
    <text style="font-size: 5.4px; font-family: 'DejaVu Sans'; text-anchor: middle; fill: #111827" x="460.539533" y="138.248533" transform="rotate(-0 460.539533 138.248533)">reuse</text>
   </g>
   <g id="text_27">
    <text style="font-weight: 700; font-size: 11.2px; font-family: 'DejaVu Sans'; text-anchor: middle; fill: #166534" x="497.630949" y="102.452832" transform="rotate(-0 497.630949 102.452832)">91.1x</text>
   </g>
   <g id="text_28">
    <text style="font-weight: 700; font-size: 5.6px; font-family: 'DejaVu Sans'; text-anchor: middle; fill: #166534" x="497.630949" y="112.637318" transform="rotate(-0 497.630949 112.637318)">warm follow-up</text>
   </g>
   <g id="text_29">
    <text style="font-size: 4.8px; font-family: 'DejaVu Sans'; fill: #334155" transform="translate(482.080074 119.054932)">Qwen-7B 16f</text>
    <text style="font-size: 4.8px; font-family: 'DejaVu Sans'; fill: #334155" transform="translate(483.811074 124.429882)">after ingest</text>
   </g>
   <g id="text_30">
    <text style="font-weight: 700; font-size: 5.2px; font-family: 'DejaVu Sans'; text-anchor: middle; fill: #166534" x="463.483296" y="152.839238" transform="rotate(-0 463.483296 152.839238)">14.90-35.92x repaired follow-up</text>
   </g>
   <g id="text_31">
    <text style="font-size: 5.3px; font-family: 'DejaVu Sans'; text-anchor: middle; fill: #166534" x="463.483296" y="160.879622" transform="rotate(-0 463.483296 160.879622)">0/62 follow-up drift</text>
   </g>
   <g id="text_32">
    <text style="font-weight: 700; font-size: 6.2px; font-family: 'DejaVu Sans'; text-anchor: middle; fill: #ffffff" x="34.009272" y="204.07286" transform="rotate(-0 34.009272 204.07286)">5</text>
   </g>
   <g id="text_33">
    <text style="font-weight: 700; font-size: 7.35px; font-family: 'DejaVu Sans'; text-anchor: start; fill: #0369a1" x="47.151072" y="205.71346" transform="rotate(-0 47.151072 205.71346)">C-VISION</text>
   </g>
   <g id="patch_113">
    <path d="M 65.738834 231.575443
Q 73.392618 231.575443 80.151975 231.575443
" style="fill: none; stroke: #0369a1; stroke-width: 0.8; stroke-linecap: round"/>
    <path d="M 75.751975 229.375443
L 80.151975 231.575443
L 75.751975 233.775443
" style="fill: none; stroke: #0369a1; stroke-width: 0.8; stroke-linecap: round"/>
   </g>
   <g id="text_34">
    <text style="font-size: 5.5px; font-family: 'DejaVu Sans'; fill: #0369a1" transform="translate(67.358597 215.768186)">keep</text>
    <text style="font-size: 5.5px; font-family: 'DejaVu Sans'; fill: #0369a1" transform="translate(66.249574 221.926982)">fewer</text>
   </g>
   <g id="text_35">
    <text style="font-weight: 700; font-size: 8.6px; font-family: 'DejaVu Sans'; text-anchor: middle; fill: #0369a1" x="78.691392" y="259.448774" transform="rotate(-0 78.691392 259.448774)">1.316x</text>
   </g>
   <g id="text_36">
    <text style="font-weight: 700; font-size: 5.7px; font-family: 'DejaVu Sans'; text-anchor: middle; fill: #0369a1" x="78.691392" y="268.025184" transform="rotate(-0 78.691392 268.025184)">first-query E2E</text>
   </g>
   <g id="text_37">
    <text style="font-size: 5.1px; font-family: 'DejaVu Sans'; text-anchor: middle; fill: #334155" x="78.691392" y="277.673645" transform="rotate(-0 78.691392 277.673645)">Gemma 32f short; 0/20 paired drift</text>
   </g>
   <g id="text_38">
    <text style="font-size: 5.3px; font-family: 'DejaVu Sans'; text-anchor: middle; fill: #64748b" x="78.691392" y="287.858131" transform="rotate(-0 78.691392 287.858131)">bounded sparse-vision cell</text>
   </g>
   <g id="text_39">
    <text style="font-weight: 700; font-size: 6.2px; font-family: 'DejaVu Sans'; text-anchor: middle; fill: #ffffff" x="162.27324" y="204.07286" transform="rotate(-0 162.27324 204.07286)">6</text>
   </g>
   <g id="text_40">
    <text style="font-weight: 700; font-size: 7.35px; font-family: 'DejaVu Sans'; text-anchor: start; fill: #4f46e5" x="175.41504" y="205.71346" transform="rotate(-0 175.41504 205.71346)">C-CEILING</text>
   </g>
   <g id="text_41">
    <text style="font-size: 5.5px; font-family: 'DejaVu Sans'; text-anchor: middle; fill: #0f172a" x="179.872739" y="236.845279" transform="rotate(-0 179.872739 236.845279)">vision</text>
   </g>
   <g id="text_42">
    <text style="font-size: 5.5px; font-family: 'DejaVu Sans'; text-anchor: middle; fill: #0f172a" x="224.617939" y="236.845279" transform="rotate(-0 224.617939 236.845279)">fixed work</text>
   </g>
   <g id="text_43">
    <text style="font-weight: 700; font-size: 7px; font-family: 'DejaVu Sans'; text-anchor: middle; fill: #4f46e5" x="206.95536" y="262.664928" transform="rotate(-0 206.95536 262.664928)">do not multiply</text>
   </g>
   <g id="text_44">
    <text style="font-size: 5.7px; font-family: 'DejaVu Sans'; text-anchor: middle; fill: #334155" x="206.95536" y="279.817747" transform="rotate(-0 206.95536 279.817747)">stage share bounds every win</text>
   </g>
   <g id="text_45">
    <text style="font-weight: 700; font-size: 6.2px; font-family: 'DejaVu Sans'; text-anchor: middle; fill: #ffffff" x="290.537208" y="204.07286" transform="rotate(-0 290.537208 204.07286)">7</text>
   </g>
   <g id="text_46">
    <text style="font-weight: 700; font-size: 7.35px; font-family: 'DejaVu Sans'; text-anchor: start; fill: #92400e" x="303.679008" y="205.71346" transform="rotate(-0 303.679008 205.71346)">C-STREAM?</text>
   </g>
   <g id="patch_114">
    <path d="M 316.379244 223.535059
Q 325.210533 223.535059 333.203297 223.535059
" style="fill: none; stroke: #92400e; stroke-width: 0.75; stroke-linecap: round"/>
    <path d="M 328.803297 221.335059
L 333.203297 223.535059
L 328.803297 225.735059
" style="fill: none; stroke: #92400e; stroke-width: 0.75; stroke-linecap: round"/>
   </g>
   <g id="text_47">
    <text style="font-size: 4.9px; font-family: 'DejaVu Sans'; text-anchor: middle; fill: #111827" x="349.349391" y="224.887153" transform="rotate(-0 349.349391 224.887153)">state</text>
   </g>
   <g id="patch_115">
    <path d="M 316.379244 239.615827
Q 325.210533 239.615827 333.203297 239.615827
" style="fill: none; stroke: #92400e; stroke-width: 0.75; stroke-linecap: round"/>
    <path d="M 328.803297 237.415827
L 333.203297 239.615827
L 328.803297 241.815827
" style="fill: none; stroke: #92400e; stroke-width: 0.75; stroke-linecap: round"/>
   </g>
   <g id="text_48">
    <text style="font-size: 4.9px; font-family: 'DejaVu Sans'; text-anchor: middle; fill: #111827" x="349.349391" y="240.967921" transform="rotate(-0 349.349391 240.967921)">state</text>
   </g>
   <g id="patch_116">
    <path d="M 316.379244 255.696595
Q 325.210533 255.696595 333.203297 255.696595
" style="fill: none; stroke: #92400e; stroke-width: 0.75; stroke-linecap: round"/>
    <path d="M 328.803297 253.496595
L 333.203297 255.696595
L 328.803297 257.896595
" style="fill: none; stroke: #92400e; stroke-width: 0.75; stroke-linecap: round"/>
   </g>
   <g id="text_49">
    <text style="font-size: 4.9px; font-family: 'DejaVu Sans'; text-anchor: middle; fill: #111827" x="349.349391" y="257.048689" transform="rotate(-0 349.349391 257.048689)">state</text>
   </g>
   <g id="text_50">
    <text style="font-weight: 700; font-size: 5.9px; font-family: 'DejaVu Sans'; fill: #92400e" transform="translate(310.621398 269.994884)">shift / rebuild /</text>
    <text style="font-weight: 700; font-size: 5.9px; font-family: 'DejaVu Sans'; fill: #92400e" transform="translate(318.658305 276.601594)">invalidate</text>
   </g>
   <g id="text_51">
    <text style="font-size: 5.3px; font-family: 'DejaVu Sans'; text-anchor: middle; fill: #64748b" x="335.219328" y="289.466208" transform="rotate(-0 335.219328 289.466208)">candidate; not headline</text>
   </g>
   <g id="text_52">
    <text style="font-weight: 700; font-size: 6.2px; font-family: 'DejaVu Sans'; text-anchor: middle; fill: #ffffff" x="418.801176" y="204.07286" transform="rotate(-0 418.801176 204.07286)">8</text>
   </g>
   <g id="text_53">
    <text style="font-weight: 700; font-size: 7.35px; font-family: 'DejaVu Sans'; text-anchor: start; fill: #166534" x="431.942976" y="205.71346" transform="rotate(-0 431.942976 205.71346)">TARGET SYSTEM</text>
   </g>
   <g id="patch_117">
    <path d="M 482.32338 228.35929
Q 489.388412 228.35929 495.726722 228.35929
" style="fill: none; stroke: #334155; stroke-width: 0.65; stroke-linecap: round"/>
    <path d="M 491.326722 226.15929
L 495.726722 228.35929
L 491.326722 230.55929
" style="fill: none; stroke: #334155; stroke-width: 0.65; stroke-linecap: round"/>
   </g>
   <g id="text_54">
    <text style="font-size: 5px; font-family: 'DejaVu Sans'; text-anchor: start; fill: #334155" x="497.630949" y="229.738977" transform="rotate(-0 497.630949 229.738977)">objects</text>
   </g>
   <g id="patch_118">
    <path d="M 482.32338 243.368006
Q 489.388412 243.368006 495.726722 243.368006
" style="fill: none; stroke: #334155; stroke-width: 0.65; stroke-linecap: round"/>
    <path d="M 491.326722 241.168006
L 495.726722 243.368006
L 491.326722 245.568006
" style="fill: none; stroke: #334155; stroke-width: 0.65; stroke-linecap: round"/>
   </g>
   <g id="text_55">
    <text style="font-size: 5px; font-family: 'DejaVu Sans'; text-anchor: start; fill: #334155" x="497.630949" y="244.747694" transform="rotate(-0 497.630949 244.747694)">motion</text>
   </g>
   <g id="patch_119">
    <path d="M 482.32338 258.376723
Q 489.388412 258.376723 495.726722 258.376723
" style="fill: none; stroke: #334155; stroke-width: 0.65; stroke-linecap: round"/>
    <path d="M 491.326722 256.176723
L 495.726722 258.376723
L 491.326722 260.576723
" style="fill: none; stroke: #334155; stroke-width: 0.65; stroke-linecap: round"/>
   </g>
   <g id="text_56">
    <text style="font-size: 5px; font-family: 'DejaVu Sans'; text-anchor: start; fill: #334155" x="497.630949" y="259.756411" transform="rotate(-0 497.630949 259.756411)">cache</text>
   </g>
   <g id="text_57">
    <text style="font-weight: 700; font-size: 5.6px; font-family: 'DejaVu Sans'; text-anchor: middle; fill: #166534" x="463.483296" y="286.165353" transform="rotate(-0 463.483296 286.165353)">target: state &gt; pixels</text>
   </g>
  </g>
  <g id="text_58">
   <text style="font-weight: 700; font-size: 13.2px; font-family: 'DejaVu Sans'; text-anchor: middle" x="270.036" y="17.229937" transform="rotate(-0 270.036 17.229937)">Stop recomputing unchanged video state</text>
  </g>
  <g id="text_59">
   <text style="font-size: 7.5px; font-family: 'DejaVu Sans'; text-anchor: middle; fill: #475569" x="270.036" y="26.4888" transform="rotate(-0 270.036 26.4888)">Carry state. Recompute only where validation requires it. Keep speedup denominators separate.</text>
  </g>
 </g>
 <defs>
  <clipPath id="p75e5bcc352">
   <rect x="7.2" y="29.196" width="525.672" height="297.792"/>
  </clipPath>
 </defs>
</svg>
