<?xml version="1.0" encoding="utf-8" standalone="no"?>
<!DOCTYPE svg PUBLIC "-//W3C//DTD SVG 1.1//EN"
  "http://www.w3.org/Graphics/SVG/1.1/DTD/svg11.dtd">
<svg xmlns:xlink="http://www.w3.org/1999/xlink" width="418.59pt" height="241.272pt" viewBox="0 0 418.59 241.272" xmlns="http://www.w3.org/2000/svg" version="1.1">
 <metadata>
  <rdf:RDF xmlns:dc="http://purl.org/dc/elements/1.1/" xmlns:cc="http://creativecommons.org/ns#" xmlns:rdf="http://www.w3.org/1999/02/22-rdf-syntax-ns#">
   <cc:Work>
    <dc:type rdf:resource="http://purl.org/dc/dcmitype/StillImage"/>
    <dc:date>2026-05-03T21:28:33.522830</dc:date>
    <dc:format>image/svg+xml</dc:format>
    <dc:creator>
     <cc:Agent>
      <dc:title>Matplotlib v3.10.8, https://matplotlib.org/</dc:title>
     </cc:Agent>
    </dc:creator>
   </cc:Work>
  </rdf:RDF>
 </metadata>
 <defs>
  <style type="text/css">*{stroke-linejoin: round; stroke-linecap: butt}</style>
 </defs>
 <g id="figure_1">
  <g id="patch_1">
   <path d="M 0 241.272
L 418.59 241.272
L 418.59 0
L 0 0
z
" style="fill: #ffffff"/>
  </g>
  <g id="axes_1">
   <g id="patch_2">
    <path d="M 22.64121 118.013688
L 196.40799 118.013688
Q 200.56509 118.013688 200.56509 115.629768
L 200.56509 46.972872
Q 200.56509 44.588952 196.40799 44.588952
L 22.64121 44.588952
Q 18.48411 44.588952 18.48411 46.972872
L 18.48411 115.629768
Q 18.48411 118.013688 22.64121 118.013688
z
" clip-path="url(#p7459a060a4)" style="fill: #fee2e2; stroke: #dc2626; stroke-width: 0.9; stroke-linejoin: miter"/>
   </g>
   <g id="patch_3">
    <path d="M 222.18201 118.013688
L 395.94879 118.013688
Q 400.10589 118.013688 400.10589 115.629768
L 400.10589 46.972872
Q 400.10589 44.588952 395.94879 44.588952
L 222.18201 44.588952
Q 218.02491 44.588952 218.02491 46.972872
L 218.02491 115.629768
Q 218.02491 118.013688 222.18201 118.013688
z
" clip-path="url(#p7459a060a4)" style="fill: #dcfce7; stroke: #16a34a; stroke-width: 0.9; stroke-linejoin: miter"/>
   </g>
   <g id="patch_4">
    <path d="M 22.64121 206.218728
L 196.40799 206.218728
Q 200.56509 206.218728 200.56509 203.834808
L 200.56509 135.177912
Q 200.56509 132.793992 196.40799 132.793992
L 22.64121 132.793992
Q 18.48411 132.793992 18.48411 135.177912
L 18.48411 203.834808
Q 18.48411 206.218728 22.64121 206.218728
z
" clip-path="url(#p7459a060a4)" style="fill: #dbeafe; stroke: #2563eb; stroke-width: 0.9; stroke-linejoin: miter"/>
   </g>
   <g id="patch_5">
    <path d="M 222.18201 206.218728
L 395.94879 206.218728
Q 400.10589 206.218728 400.10589 203.834808
L 400.10589 135.177912
Q 400.10589 132.793992 395.94879 132.793992
L 222.18201 132.793992
Q 218.02491 132.793992 218.02491 135.177912
L 218.02491 203.834808
Q 218.02491 206.218728 222.18201 206.218728
z
" clip-path="url(#p7459a060a4)" style="fill: #ede9fe; stroke: #7c3aed; stroke-width: 0.9; stroke-linejoin: miter"/>
   </g>
   <g id="patch_6">
    <path d="M 37.19106 92.982528
L 74.18925 92.982528
Q 77.09922 92.982528 77.09922 91.313784
L 77.09922 72.480816
Q 77.09922 70.812072 74.18925 70.812072
L 37.19106 70.812072
Q 34.28109 70.812072 34.28109 72.480816
L 34.28109 91.313784
Q 34.28109 92.982528 37.19106 92.982528
z
" clip-path="url(#p7459a060a4)" style="fill: #ffffff; stroke: #dc2626; stroke-width: 0.75; stroke-linejoin: miter"/>
   </g>
   <g id="patch_7">
    <path d="M 90.40194 92.982528
L 127.40013 92.982528
Q 130.3101 92.982528 130.3101 91.313784
L 130.3101 72.480816
Q 130.3101 70.812072 127.40013 70.812072
L 90.40194 70.812072
Q 87.49197 70.812072 87.49197 72.480816
L 87.49197 91.313784
Q 87.49197 92.982528 90.40194 92.982528
z
" clip-path="url(#p7459a060a4)" style="fill: #ffffff; stroke: #dc2626; stroke-width: 0.75; stroke-linejoin: miter"/>
   </g>
   <g id="patch_8">
    <path d="M 143.61282 92.982528
L 180.61101 92.982528
Q 183.52098 92.982528 183.52098 91.313784
L 183.52098 72.480816
Q 183.52098 70.812072 180.61101 70.812072
L 143.61282 70.812072
Q 140.70285 70.812072 140.70285 72.480816
L 140.70285 91.313784
Q 140.70285 92.982528 143.61282 92.982528
z
" clip-path="url(#p7459a060a4)" style="fill: #ffffff; stroke: #dc2626; stroke-width: 0.75; stroke-linejoin: miter"/>
   </g>
   <g id="patch_9">
    <path d="M 38.8539 157.59868
L 45.944725 157.59868
L 45.944725 150.911784
L 38.8539 150.911784
z
" clip-path="url(#p7459a060a4)" style="fill: #dbeafe; opacity: 0.3; stroke: #bfdbfe; stroke-width: 0.25; stroke-linejoin: miter"/>
   </g>
   <g id="patch_10">
    <path d="M 47.025571 157.59868
L 54.116396 157.59868
L 54.116396 150.911784
L 47.025571 150.911784
z
" clip-path="url(#p7459a060a4)" style="fill: #dbeafe; opacity: 0.3; stroke: #bfdbfe; stroke-width: 0.25; stroke-linejoin: miter"/>
   </g>
   <g id="patch_11">
    <path d="M 55.197242 157.59868
L 62.288067 157.59868
L 62.288067 150.911784
L 55.197242 150.911784
z
" clip-path="url(#p7459a060a4)" style="fill: #2563eb; opacity: 0.95; stroke: #bfdbfe; stroke-width: 0.25; stroke-linejoin: miter"/>
   </g>
   <g id="patch_12">
    <path d="M 63.368913 157.59868
L 70.459737 157.59868
L 70.459737 150.911784
L 63.368913 150.911784
z
" clip-path="url(#p7459a060a4)" style="fill: #dbeafe; opacity: 0.3; stroke: #bfdbfe; stroke-width: 0.25; stroke-linejoin: miter"/>
   </g>
   <g id="patch_13">
    <path d="M 71.540583 157.59868
L 78.631408 157.59868
L 78.631408 150.911784
L 71.540583 150.911784
z
" clip-path="url(#p7459a060a4)" style="fill: #dbeafe; opacity: 0.3; stroke: #bfdbfe; stroke-width: 0.25; stroke-linejoin: miter"/>
   </g>
   <g id="patch_14">
    <path d="M 79.712254 157.59868
L 86.803079 157.59868
L 86.803079 150.911784
L 79.712254 150.911784
z
" clip-path="url(#p7459a060a4)" style="fill: #2563eb; opacity: 0.95; stroke: #bfdbfe; stroke-width: 0.25; stroke-linejoin: miter"/>
   </g>
   <g id="patch_15">
    <path d="M 87.883925 157.59868
L 94.97475 157.59868
L 94.97475 150.911784
L 87.883925 150.911784
z
" clip-path="url(#p7459a060a4)" style="fill: #dbeafe; opacity: 0.3; stroke: #bfdbfe; stroke-width: 0.25; stroke-linejoin: miter"/>
   </g>
   <g id="patch_16">
    <path d="M 38.8539 164.905394
L 45.944725 164.905394
L 45.944725 158.218499
L 38.8539 158.218499
z
" clip-path="url(#p7459a060a4)" style="fill: #dbeafe; opacity: 0.3; stroke: #bfdbfe; stroke-width: 0.25; stroke-linejoin: miter"/>
   </g>
   <g id="patch_17">
    <path d="M 47.025571 164.905394
L 54.116396 164.905394
L 54.116396 158.218499
L 47.025571 158.218499
z
" clip-path="url(#p7459a060a4)" style="fill: #2563eb; opacity: 0.95; stroke: #bfdbfe; stroke-width: 0.25; stroke-linejoin: miter"/>
   </g>
   <g id="patch_18">
    <path d="M 55.197242 164.905394
L 62.288067 164.905394
L 62.288067 158.218499
L 55.197242 158.218499
z
" clip-path="url(#p7459a060a4)" style="fill: #dbeafe; opacity: 0.3; stroke: #bfdbfe; stroke-width: 0.25; stroke-linejoin: miter"/>
   </g>
   <g id="patch_19">
    <path d="M 63.368913 164.905394
L 70.459737 164.905394
L 70.459737 158.218499
L 63.368913 158.218499
z
" clip-path="url(#p7459a060a4)" style="fill: #dbeafe; opacity: 0.3; stroke: #bfdbfe; stroke-width: 0.25; stroke-linejoin: miter"/>
   </g>
   <g id="patch_20">
    <path d="M 71.540583 164.905394
L 78.631408 164.905394
L 78.631408 158.218499
L 71.540583 158.218499
z
" clip-path="url(#p7459a060a4)" style="fill: #2563eb; opacity: 0.95; stroke: #bfdbfe; stroke-width: 0.25; stroke-linejoin: miter"/>
   </g>
   <g id="patch_21">
    <path d="M 79.712254 164.905394
L 86.803079 164.905394
L 86.803079 158.218499
L 79.712254 158.218499
z
" clip-path="url(#p7459a060a4)" style="fill: #dbeafe; opacity: 0.3; stroke: #bfdbfe; stroke-width: 0.25; stroke-linejoin: miter"/>
   </g>
   <g id="patch_22">
    <path d="M 87.883925 164.905394
L 94.97475 164.905394
L 94.97475 158.218499
L 87.883925 158.218499
z
" clip-path="url(#p7459a060a4)" style="fill: #dbeafe; opacity: 0.3; stroke: #bfdbfe; stroke-width: 0.25; stroke-linejoin: miter"/>
   </g>
   <g id="patch_23">
    <path d="M 38.8539 172.212109
L 45.944725 172.212109
L 45.944725 165.525214
L 38.8539 165.525214
z
" clip-path="url(#p7459a060a4)" style="fill: #dbeafe; opacity: 0.3; stroke: #bfdbfe; stroke-width: 0.25; stroke-linejoin: miter"/>
   </g>
   <g id="patch_24">
    <path d="M 47.025571 172.212109
L 54.116396 172.212109
L 54.116396 165.525214
L 47.025571 165.525214
z
" clip-path="url(#p7459a060a4)" style="fill: #dbeafe; opacity: 0.3; stroke: #bfdbfe; stroke-width: 0.25; stroke-linejoin: miter"/>
   </g>
   <g id="patch_25">
    <path d="M 55.197242 172.212109
L 62.288067 172.212109
L 62.288067 165.525214
L 55.197242 165.525214
z
" clip-path="url(#p7459a060a4)" style="fill: #dbeafe; opacity: 0.3; stroke: #bfdbfe; stroke-width: 0.25; stroke-linejoin: miter"/>
   </g>
   <g id="patch_26">
    <path d="M 63.368913 172.212109
L 70.459737 172.212109
L 70.459737 165.525214
L 63.368913 165.525214
z
" clip-path="url(#p7459a060a4)" style="fill: #2563eb; opacity: 0.95; stroke: #bfdbfe; stroke-width: 0.25; stroke-linejoin: miter"/>
   </g>
   <g id="patch_27">
    <path d="M 71.540583 172.212109
L 78.631408 172.212109
L 78.631408 165.525214
L 71.540583 165.525214
z
" clip-path="url(#p7459a060a4)" style="fill: #dbeafe; opacity: 0.3; stroke: #bfdbfe; stroke-width: 0.25; stroke-linejoin: miter"/>
   </g>
   <g id="patch_28">
    <path d="M 79.712254 172.212109
L 86.803079 172.212109
L 86.803079 165.525214
L 79.712254 165.525214
z
" clip-path="url(#p7459a060a4)" style="fill: #dbeafe; opacity: 0.3; stroke: #bfdbfe; stroke-width: 0.25; stroke-linejoin: miter"/>
   </g>
   <g id="patch_29">
    <path d="M 87.883925 172.212109
L 94.97475 172.212109
L 94.97475 165.525214
L 87.883925 165.525214
z
" clip-path="url(#p7459a060a4)" style="fill: #dbeafe; opacity: 0.3; stroke: #bfdbfe; stroke-width: 0.25; stroke-linejoin: miter"/>
   </g>
   <g id="patch_30">
    <path d="M 38.8539 179.518824
L 45.944725 179.518824
L 45.944725 172.831928
L 38.8539 172.831928
z
" clip-path="url(#p7459a060a4)" style="fill: #2563eb; opacity: 0.95; stroke: #bfdbfe; stroke-width: 0.25; stroke-linejoin: miter"/>
   </g>
   <g id="patch_31">
    <path d="M 47.025571 179.518824
L 54.116396 179.518824
L 54.116396 172.831928
L 47.025571 172.831928
z
" clip-path="url(#p7459a060a4)" style="fill: #dbeafe; opacity: 0.3; stroke: #bfdbfe; stroke-width: 0.25; stroke-linejoin: miter"/>
   </g>
   <g id="patch_32">
    <path d="M 55.197242 179.518824
L 62.288067 179.518824
L 62.288067 172.831928
L 55.197242 172.831928
z
" clip-path="url(#p7459a060a4)" style="fill: #dbeafe; opacity: 0.3; stroke: #bfdbfe; stroke-width: 0.25; stroke-linejoin: miter"/>
   </g>
   <g id="patch_33">
    <path d="M 63.368913 179.518824
L 70.459737 179.518824
L 70.459737 172.831928
L 63.368913 172.831928
z
" clip-path="url(#p7459a060a4)" style="fill: #dbeafe; opacity: 0.3; stroke: #bfdbfe; stroke-width: 0.25; stroke-linejoin: miter"/>
   </g>
   <g id="patch_34">
    <path d="M 71.540583 179.518824
L 78.631408 179.518824
L 78.631408 172.831928
L 71.540583 172.831928
z
" clip-path="url(#p7459a060a4)" style="fill: #dbeafe; opacity: 0.3; stroke: #bfdbfe; stroke-width: 0.25; stroke-linejoin: miter"/>
   </g>
   <g id="patch_35">
    <path d="M 79.712254 179.518824
L 86.803079 179.518824
L 86.803079 172.831928
L 79.712254 172.831928
z
" clip-path="url(#p7459a060a4)" style="fill: #2563eb; opacity: 0.95; stroke: #bfdbfe; stroke-width: 0.25; stroke-linejoin: miter"/>
   </g>
   <g id="patch_36">
    <path d="M 87.883925 179.518824
L 94.97475 179.518824
L 94.97475 172.831928
L 87.883925 172.831928
z
" clip-path="url(#p7459a060a4)" style="fill: #dbeafe; opacity: 0.3; stroke: #bfdbfe; stroke-width: 0.25; stroke-linejoin: miter"/>
   </g>
   <g id="patch_37">
    <path d="M 134.4672 159.803806
L 139.182539 159.803806
L 139.182539 155.20284
L 134.4672 155.20284
z
" clip-path="url(#p7459a060a4)" style="fill: #dbeafe; opacity: 0.3; stroke: #bfdbfe; stroke-width: 0.25; stroke-linejoin: miter"/>
   </g>
   <g id="patch_38">
    <path d="M 140.263385 159.803806
L 144.978724 159.803806
L 144.978724 155.20284
L 140.263385 155.20284
z
" clip-path="url(#p7459a060a4)" style="fill: #dbeafe; opacity: 0.3; stroke: #bfdbfe; stroke-width: 0.25; stroke-linejoin: miter"/>
   </g>
   <g id="patch_39">
    <path d="M 146.05957 159.803806
L 150.774909 159.803806
L 150.774909 155.20284
L 146.05957 155.20284
z
" clip-path="url(#p7459a060a4)" style="fill: #2563eb; opacity: 0.95; stroke: #bfdbfe; stroke-width: 0.25; stroke-linejoin: miter"/>
   </g>
   <g id="patch_40">
    <path d="M 151.855755 159.803806
L 156.571095 159.803806
L 156.571095 155.20284
L 151.855755 155.20284
z
" clip-path="url(#p7459a060a4)" style="fill: #dbeafe; opacity: 0.3; stroke: #bfdbfe; stroke-width: 0.25; stroke-linejoin: miter"/>
   </g>
   <g id="patch_41">
    <path d="M 157.651941 159.803806
L 162.36728 159.803806
L 162.36728 155.20284
L 157.651941 155.20284
z
" clip-path="url(#p7459a060a4)" style="fill: #dbeafe; opacity: 0.3; stroke: #bfdbfe; stroke-width: 0.25; stroke-linejoin: miter"/>
   </g>
   <g id="patch_42">
    <path d="M 163.448126 159.803806
L 168.163465 159.803806
L 168.163465 155.20284
L 163.448126 155.20284
z
" clip-path="url(#p7459a060a4)" style="fill: #2563eb; opacity: 0.95; stroke: #bfdbfe; stroke-width: 0.25; stroke-linejoin: miter"/>
   </g>
   <g id="patch_43">
    <path d="M 169.244311 159.803806
L 173.95965 159.803806
L 173.95965 155.20284
L 169.244311 155.20284
z
" clip-path="url(#p7459a060a4)" style="fill: #dbeafe; opacity: 0.3; stroke: #bfdbfe; stroke-width: 0.25; stroke-linejoin: miter"/>
   </g>
   <g id="patch_44">
    <path d="M 134.4672 165.02459
L 139.182539 165.02459
L 139.182539 160.423625
L 134.4672 160.423625
z
" clip-path="url(#p7459a060a4)" style="fill: #dbeafe; opacity: 0.3; stroke: #bfdbfe; stroke-width: 0.25; stroke-linejoin: miter"/>
   </g>
   <g id="patch_45">
    <path d="M 140.263385 165.02459
L 144.978724 165.02459
L 144.978724 160.423625
L 140.263385 160.423625
z
" clip-path="url(#p7459a060a4)" style="fill: #2563eb; opacity: 0.95; stroke: #bfdbfe; stroke-width: 0.25; stroke-linejoin: miter"/>
   </g>
   <g id="patch_46">
    <path d="M 146.05957 165.02459
L 150.774909 165.02459
L 150.774909 160.423625
L 146.05957 160.423625
z
" clip-path="url(#p7459a060a4)" style="fill: #dbeafe; opacity: 0.3; stroke: #bfdbfe; stroke-width: 0.25; stroke-linejoin: miter"/>
   </g>
   <g id="patch_47">
    <path d="M 151.855755 165.02459
L 156.571095 165.02459
L 156.571095 160.423625
L 151.855755 160.423625
z
" clip-path="url(#p7459a060a4)" style="fill: #dbeafe; opacity: 0.3; stroke: #bfdbfe; stroke-width: 0.25; stroke-linejoin: miter"/>
   </g>
   <g id="patch_48">
    <path d="M 157.651941 165.02459
L 162.36728 165.02459
L 162.36728 160.423625
L 157.651941 160.423625
z
" clip-path="url(#p7459a060a4)" style="fill: #2563eb; opacity: 0.95; stroke: #bfdbfe; stroke-width: 0.25; stroke-linejoin: miter"/>
   </g>
   <g id="patch_49">
    <path d="M 163.448126 165.02459
L 168.163465 165.02459
L 168.163465 160.423625
L 163.448126 160.423625
z
" clip-path="url(#p7459a060a4)" style="fill: #dbeafe; opacity: 0.3; stroke: #bfdbfe; stroke-width: 0.25; stroke-linejoin: miter"/>
   </g>
   <g id="patch_50">
    <path d="M 169.244311 165.02459
L 173.95965 165.02459
L 173.95965 160.423625
L 169.244311 160.423625
z
" clip-path="url(#p7459a060a4)" style="fill: #dbeafe; opacity: 0.3; stroke: #bfdbfe; stroke-width: 0.25; stroke-linejoin: miter"/>
   </g>
   <g id="patch_51">
    <path d="M 134.4672 170.245375
L 139.182539 170.245375
L 139.182539 165.64441
L 134.4672 165.64441
z
" clip-path="url(#p7459a060a4)" style="fill: #dbeafe; opacity: 0.3; stroke: #bfdbfe; stroke-width: 0.25; stroke-linejoin: miter"/>
   </g>
   <g id="patch_52">
    <path d="M 140.263385 170.245375
L 144.978724 170.245375
L 144.978724 165.64441
L 140.263385 165.64441
z
" clip-path="url(#p7459a060a4)" style="fill: #dbeafe; opacity: 0.3; stroke: #bfdbfe; stroke-width: 0.25; stroke-linejoin: miter"/>
   </g>
   <g id="patch_53">
    <path d="M 146.05957 170.245375
L 150.774909 170.245375
L 150.774909 165.64441
L 146.05957 165.64441
z
" clip-path="url(#p7459a060a4)" style="fill: #dbeafe; opacity: 0.3; stroke: #bfdbfe; stroke-width: 0.25; stroke-linejoin: miter"/>
   </g>
   <g id="patch_54">
    <path d="M 151.855755 170.245375
L 156.571095 170.245375
L 156.571095 165.64441
L 151.855755 165.64441
z
" clip-path="url(#p7459a060a4)" style="fill: #2563eb; opacity: 0.95; stroke: #bfdbfe; stroke-width: 0.25; stroke-linejoin: miter"/>
   </g>
   <g id="patch_55">
    <path d="M 157.651941 170.245375
L 162.36728 170.245375
L 162.36728 165.64441
L 157.651941 165.64441
z
" clip-path="url(#p7459a060a4)" style="fill: #dbeafe; opacity: 0.3; stroke: #bfdbfe; stroke-width: 0.25; stroke-linejoin: miter"/>
   </g>
   <g id="patch_56">
    <path d="M 163.448126 170.245375
L 168.163465 170.245375
L 168.163465 165.64441
L 163.448126 165.64441
z
" clip-path="url(#p7459a060a4)" style="fill: #dbeafe; opacity: 0.3; stroke: #bfdbfe; stroke-width: 0.25; stroke-linejoin: miter"/>
   </g>
   <g id="patch_57">
    <path d="M 169.244311 170.245375
L 173.95965 170.245375
L 173.95965 165.64441
L 169.244311 165.64441
z
" clip-path="url(#p7459a060a4)" style="fill: #dbeafe; opacity: 0.3; stroke: #bfdbfe; stroke-width: 0.25; stroke-linejoin: miter"/>
   </g>
   <g id="patch_58">
    <path d="M 134.4672 175.46616
L 139.182539 175.46616
L 139.182539 170.865194
L 134.4672 170.865194
z
" clip-path="url(#p7459a060a4)" style="fill: #2563eb; opacity: 0.95; stroke: #bfdbfe; stroke-width: 0.25; stroke-linejoin: miter"/>
   </g>
   <g id="patch_59">
    <path d="M 140.263385 175.46616
L 144.978724 175.46616
L 144.978724 170.865194
L 140.263385 170.865194
z
" clip-path="url(#p7459a060a4)" style="fill: #dbeafe; opacity: 0.3; stroke: #bfdbfe; stroke-width: 0.25; stroke-linejoin: miter"/>
   </g>
   <g id="patch_60">
    <path d="M 146.05957 175.46616
L 150.774909 175.46616
L 150.774909 170.865194
L 146.05957 170.865194
z
" clip-path="url(#p7459a060a4)" style="fill: #dbeafe; opacity: 0.3; stroke: #bfdbfe; stroke-width: 0.25; stroke-linejoin: miter"/>
   </g>
   <g id="patch_61">
    <path d="M 151.855755 175.46616
L 156.571095 175.46616
L 156.571095 170.865194
L 151.855755 170.865194
z
" clip-path="url(#p7459a060a4)" style="fill: #dbeafe; opacity: 0.3; stroke: #bfdbfe; stroke-width: 0.25; stroke-linejoin: miter"/>
   </g>
   <g id="patch_62">
    <path d="M 157.651941 175.46616
L 162.36728 175.46616
L 162.36728 170.865194
L 157.651941 170.865194
z
" clip-path="url(#p7459a060a4)" style="fill: #dbeafe; opacity: 0.3; stroke: #bfdbfe; stroke-width: 0.25; stroke-linejoin: miter"/>
   </g>
   <g id="patch_63">
    <path d="M 163.448126 175.46616
L 168.163465 175.46616
L 168.163465 170.865194
L 163.448126 170.865194
z
" clip-path="url(#p7459a060a4)" style="fill: #2563eb; opacity: 0.95; stroke: #bfdbfe; stroke-width: 0.25; stroke-linejoin: miter"/>
   </g>
   <g id="patch_64">
    <path d="M 169.244311 175.46616
L 173.95965 175.46616
L 173.95965 170.865194
L 169.244311 170.865194
z
" clip-path="url(#p7459a060a4)" style="fill: #dbeafe; opacity: 0.3; stroke: #bfdbfe; stroke-width: 0.25; stroke-linejoin: miter"/>
   </g>
   <g id="patch_65">
    <path d="M 236.31615 161.16264
L 299.614312 161.16264
L 299.614312 154.01088
L 236.31615 154.01088
z
" clip-path="url(#p7459a060a4)" style="fill: #2563eb; stroke: #ffffff; stroke-width: 0.4; stroke-linejoin: miter"/>
   </g>
   <g id="patch_66">
    <path d="M 299.614312 161.16264
L 344.40075 161.16264
L 344.40075 154.01088
L 299.614312 154.01088
z
" clip-path="url(#p7459a060a4)" style="fill: #94a3b8; stroke: #ffffff; stroke-width: 0.4; stroke-linejoin: miter"/>
   </g>
   <g id="patch_67">
    <path d="M 254.19168 71.76564
L 257.870714 71.76564
L 257.870714 67.474584
L 254.19168 67.474584
z
" clip-path="url(#p7459a060a4)" style="fill: #f97316; stroke: #f97316; stroke-width: 0.45; stroke-linejoin: miter"/>
   </g>
   <g id="patch_68">
    <path d="M 259.325698 71.76564
L 263.004732 71.76564
L 263.004732 67.474584
L 259.325698 67.474584
z
" clip-path="url(#p7459a060a4)" style="fill: #f97316; stroke: #f97316; stroke-width: 0.45; stroke-linejoin: miter"/>
   </g>
   <g id="patch_69">
    <path d="M 264.459717 71.76564
L 268.138751 71.76564
L 268.138751 67.474584
L 264.459717 67.474584
z
" clip-path="url(#p7459a060a4)" style="fill: #f97316; stroke: #f97316; stroke-width: 0.45; stroke-linejoin: miter"/>
   </g>
   <g id="patch_70">
    <path d="M 269.593735 71.76564
L 273.272769 71.76564
L 273.272769 67.474584
L 269.593735 67.474584
z
" clip-path="url(#p7459a060a4)" style="fill: #f97316; stroke: #f97316; stroke-width: 0.45; stroke-linejoin: miter"/>
   </g>
   <g id="patch_71">
    <path d="M 274.727754 71.76564
L 278.406788 71.76564
L 278.406788 67.474584
L 274.727754 67.474584
z
" clip-path="url(#p7459a060a4)" style="fill: #f97316; stroke: #f97316; stroke-width: 0.45; stroke-linejoin: miter"/>
   </g>
   <g id="patch_72">
    <path d="M 279.861772 71.76564
L 283.540806 71.76564
L 283.540806 67.474584
L 279.861772 67.474584
z
" clip-path="url(#p7459a060a4)" style="fill: #f97316; stroke: #f97316; stroke-width: 0.45; stroke-linejoin: miter"/>
   </g>
   <g id="patch_73">
    <path d="M 284.995791 71.76564
L 288.674824 71.76564
L 288.674824 67.474584
L 284.995791 67.474584
z
" clip-path="url(#p7459a060a4)" style="fill: #f97316; stroke: #f97316; stroke-width: 0.45; stroke-linejoin: miter"/>
   </g>
   <g id="patch_74">
    <path d="M 290.129809 71.76564
L 293.808843 71.76564
L 293.808843 67.474584
L 290.129809 67.474584
z
" clip-path="url(#p7459a060a4)" style="fill: #f97316; stroke: #f97316; stroke-width: 0.45; stroke-linejoin: miter"/>
   </g>
   <g id="patch_75">
    <path d="M 295.263828 71.76564
L 298.942861 71.76564
L 298.942861 67.474584
L 295.263828 67.474584
z
" clip-path="url(#p7459a060a4)" style="fill: #f97316; stroke: #f97316; stroke-width: 0.45; stroke-linejoin: miter"/>
   </g>
   <g id="patch_76">
    <path d="M 300.397846 71.76564
L 304.07688 71.76564
L 304.07688 67.474584
L 300.397846 67.474584
z
" clip-path="url(#p7459a060a4)" style="fill: #f97316; stroke: #f97316; stroke-width: 0.45; stroke-linejoin: miter"/>
   </g>
   <g id="patch_77">
    <path d="M 327.77235 71.76564
L 331.451384 71.76564
L 331.451384 67.474584
L 327.77235 67.474584
z
" clip-path="url(#p7459a060a4)" style="fill: #16a34a; stroke: #16a34a; stroke-width: 0.45; stroke-linejoin: miter"/>
   </g>
   <g id="patch_78">
    <path d="M 332.906368 71.76564
L 336.585402 71.76564
L 336.585402 67.474584
L 332.906368 67.474584
z
" clip-path="url(#p7459a060a4)" style="fill: #16a34a; stroke: #16a34a; stroke-width: 0.45; stroke-linejoin: miter"/>
   </g>
   <g id="patch_79">
    <path d="M 338.040387 71.76564
L 341.719421 71.76564
L 341.719421 67.474584
L 338.040387 67.474584
z
" clip-path="url(#p7459a060a4)" style="fill: #16a34a; stroke: #16a34a; stroke-width: 0.45; stroke-linejoin: miter"/>
   </g>
   <g id="patch_80">
    <path d="M 343.174405 71.76564
L 346.853439 71.76564
L 346.853439 67.474584
L 343.174405 67.474584
z
" clip-path="url(#p7459a060a4)" style="fill: #16a34a; stroke: #16a34a; stroke-width: 0.45; stroke-linejoin: miter"/>
   </g>
   <g id="patch_81">
    <path d="M 348.308424 71.76564
L 351.987458 71.76564
L 351.987458 67.474584
L 348.308424 67.474584
z
" clip-path="url(#p7459a060a4)" style="fill: #16a34a; stroke: #16a34a; stroke-width: 0.45; stroke-linejoin: miter"/>
   </g>
   <g id="patch_82">
    <path d="M 353.442442 71.76564
L 357.121476 71.76564
L 357.121476 67.474584
L 353.442442 67.474584
z
" clip-path="url(#p7459a060a4)" style="fill: #16a34a; stroke: #16a34a; stroke-width: 0.45; stroke-linejoin: miter"/>
   </g>
   <g id="patch_83">
    <path d="M 358.576461 71.76564
L 362.255494 71.76564
L 362.255494 67.474584
L 358.576461 67.474584
z
" clip-path="url(#p7459a060a4)" style="fill: #16a34a; stroke: #16a34a; stroke-width: 0.45; stroke-linejoin: miter"/>
   </g>
   <g id="patch_84">
    <path d="M 363.71048 71.76564
L 367.389513 71.76564
L 367.389513 67.474584
L 363.71048 67.474584
z
" clip-path="url(#p7459a060a4)" style="fill: #16a34a; stroke: #16a34a; stroke-width: 0.45; stroke-linejoin: miter"/>
   </g>
   <g id="patch_85">
    <path d="M 368.844498 71.76564
L 372.523531 71.76564
L 372.523531 67.474584
L 368.844498 67.474584
z
" clip-path="url(#p7459a060a4)" style="fill: #16a34a; stroke: #16a34a; stroke-width: 0.45; stroke-linejoin: miter"/>
   </g>
   <g id="patch_86">
    <path d="M 373.978516 71.76564
L 377.65755 71.76564
L 377.65755 67.474584
L 373.978516 67.474584
z
" clip-path="url(#p7459a060a4)" style="fill: #16a34a; stroke: #16a34a; stroke-width: 0.45; stroke-linejoin: miter"/>
   </g>
   <g id="patch_87">
    <path d="M 254.19168 85.592376
L 257.870714 85.592376
L 257.870714 81.30132
L 254.19168 81.30132
z
" clip-path="url(#p7459a060a4)" style="fill: #16a34a; stroke: #16a34a; stroke-width: 0.45; stroke-linejoin: miter"/>
   </g>
   <g id="patch_88">
    <path d="M 259.325698 85.592376
L 263.004732 85.592376
L 263.004732 81.30132
L 259.325698 81.30132
z
" clip-path="url(#p7459a060a4)" style="fill: #16a34a; stroke: #16a34a; stroke-width: 0.45; stroke-linejoin: miter"/>
   </g>
   <g id="patch_89">
    <path d="M 264.459717 85.592376
L 268.138751 85.592376
L 268.138751 81.30132
L 264.459717 81.30132
z
" clip-path="url(#p7459a060a4)" style="fill: #16a34a; stroke: #16a34a; stroke-width: 0.45; stroke-linejoin: miter"/>
   </g>
   <g id="patch_90">
    <path d="M 269.593735 85.592376
L 273.272769 85.592376
L 273.272769 81.30132
L 269.593735 81.30132
z
" clip-path="url(#p7459a060a4)" style="fill: #16a34a; stroke: #16a34a; stroke-width: 0.45; stroke-linejoin: miter"/>
   </g>
   <g id="patch_91">
    <path d="M 274.727754 85.592376
L 278.406788 85.592376
L 278.406788 81.30132
L 274.727754 81.30132
z
" clip-path="url(#p7459a060a4)" style="fill: #16a34a; stroke: #16a34a; stroke-width: 0.45; stroke-linejoin: miter"/>
   </g>
   <g id="patch_92">
    <path d="M 279.861772 85.592376
L 283.540806 85.592376
L 283.540806 81.30132
L 279.861772 81.30132
z
" clip-path="url(#p7459a060a4)" style="fill: #16a34a; stroke: #16a34a; stroke-width: 0.45; stroke-linejoin: miter"/>
   </g>
   <g id="patch_93">
    <path d="M 284.995791 85.592376
L 288.674824 85.592376
L 288.674824 81.30132
L 284.995791 81.30132
z
" clip-path="url(#p7459a060a4)" style="fill: #16a34a; stroke: #16a34a; stroke-width: 0.45; stroke-linejoin: miter"/>
   </g>
   <g id="patch_94">
    <path d="M 290.129809 85.592376
L 293.808843 85.592376
L 293.808843 81.30132
L 290.129809 81.30132
z
" clip-path="url(#p7459a060a4)" style="fill: #16a34a; stroke: #16a34a; stroke-width: 0.45; stroke-linejoin: miter"/>
   </g>
   <g id="patch_95">
    <path d="M 295.263828 85.592376
L 298.942861 85.592376
L 298.942861 81.30132
L 295.263828 81.30132
z
" clip-path="url(#p7459a060a4)" style="fill: #f97316; stroke: #f97316; stroke-width: 0.45; stroke-linejoin: miter"/>
   </g>
   <g id="patch_96">
    <path d="M 300.397846 85.592376
L 304.07688 85.592376
L 304.07688 81.30132
L 300.397846 81.30132
z
" clip-path="url(#p7459a060a4)" style="fill: #f97316; stroke: #f97316; stroke-width: 0.45; stroke-linejoin: miter"/>
   </g>
   <g id="patch_97">
    <path d="M 327.77235 85.592376
L 331.451384 85.592376
L 331.451384 81.30132
L 327.77235 81.30132
z
" clip-path="url(#p7459a060a4)" style="fill: #16a34a; stroke: #16a34a; stroke-width: 0.45; stroke-linejoin: miter"/>
   </g>
   <g id="patch_98">
    <path d="M 332.906368 85.592376
L 336.585402 85.592376
L 336.585402 81.30132
L 332.906368 81.30132
z
" clip-path="url(#p7459a060a4)" style="fill: #16a34a; stroke: #16a34a; stroke-width: 0.45; stroke-linejoin: miter"/>
   </g>
   <g id="patch_99">
    <path d="M 338.040387 85.592376
L 341.719421 85.592376
L 341.719421 81.30132
L 338.040387 81.30132
z
" clip-path="url(#p7459a060a4)" style="fill: #16a34a; stroke: #16a34a; stroke-width: 0.45; stroke-linejoin: miter"/>
   </g>
   <g id="patch_100">
    <path d="M 343.174405 85.592376
L 346.853439 85.592376
L 346.853439 81.30132
L 343.174405 81.30132
z
" clip-path="url(#p7459a060a4)" style="fill: #16a34a; stroke: #16a34a; stroke-width: 0.45; stroke-linejoin: miter"/>
   </g>
   <g id="patch_101">
    <path d="M 348.308424 85.592376
L 351.987458 85.592376
L 351.987458 81.30132
L 348.308424 81.30132
z
" clip-path="url(#p7459a060a4)" style="fill: #16a34a; stroke: #16a34a; stroke-width: 0.45; stroke-linejoin: miter"/>
   </g>
   <g id="patch_102">
    <path d="M 353.442442 85.592376
L 357.121476 85.592376
L 357.121476 81.30132
L 353.442442 81.30132
z
" clip-path="url(#p7459a060a4)" style="fill: #16a34a; stroke: #16a34a; stroke-width: 0.45; stroke-linejoin: miter"/>
   </g>
   <g id="patch_103">
    <path d="M 358.576461 85.592376
L 362.255494 85.592376
L 362.255494 81.30132
L 358.576461 81.30132
z
" clip-path="url(#p7459a060a4)" style="fill: #16a34a; stroke: #16a34a; stroke-width: 0.45; stroke-linejoin: miter"/>
   </g>
   <g id="patch_104">
    <path d="M 363.71048 85.592376
L 367.389513 85.592376
L 367.389513 81.30132
L 363.71048 81.30132
z
" clip-path="url(#p7459a060a4)" style="fill: #16a34a; stroke: #16a34a; stroke-width: 0.45; stroke-linejoin: miter"/>
   </g>
   <g id="patch_105">
    <path d="M 368.844498 85.592376
L 372.523531 85.592376
L 372.523531 81.30132
L 368.844498 81.30132
z
" clip-path="url(#p7459a060a4)" style="fill: #16a34a; stroke: #16a34a; stroke-width: 0.45; stroke-linejoin: miter"/>
   </g>
   <g id="patch_106">
    <path d="M 373.978516 85.592376
L 377.65755 85.592376
L 377.65755 81.30132
L 373.978516 81.30132
z
" clip-path="url(#p7459a060a4)" style="fill: #16a34a; stroke: #16a34a; stroke-width: 0.45; stroke-linejoin: miter"/>
   </g>
   <g id="patch_107">
    <path d="M 254.19168 99.419112
L 257.870714 99.419112
L 257.870714 95.128056
L 254.19168 95.128056
z
" clip-path="url(#p7459a060a4)" style="fill: #16a34a; stroke: #16a34a; stroke-width: 0.45; stroke-linejoin: miter"/>
   </g>
   <g id="patch_108">
    <path d="M 259.325698 99.419112
L 263.004732 99.419112
L 263.004732 95.128056
L 259.325698 95.128056
z
" clip-path="url(#p7459a060a4)" style="fill: #16a34a; stroke: #16a34a; stroke-width: 0.45; stroke-linejoin: miter"/>
   </g>
   <g id="patch_109">
    <path d="M 264.459717 99.419112
L 268.138751 99.419112
L 268.138751 95.128056
L 264.459717 95.128056
z
" clip-path="url(#p7459a060a4)" style="fill: #16a34a; stroke: #16a34a; stroke-width: 0.45; stroke-linejoin: miter"/>
   </g>
   <g id="patch_110">
    <path d="M 269.593735 99.419112
L 273.272769 99.419112
L 273.272769 95.128056
L 269.593735 95.128056
z
" clip-path="url(#p7459a060a4)" style="fill: #16a34a; stroke: #16a34a; stroke-width: 0.45; stroke-linejoin: miter"/>
   </g>
   <g id="patch_111">
    <path d="M 274.727754 99.419112
L 278.406788 99.419112
L 278.406788 95.128056
L 274.727754 95.128056
z
" clip-path="url(#p7459a060a4)" style="fill: #16a34a; stroke: #16a34a; stroke-width: 0.45; stroke-linejoin: miter"/>
   </g>
   <g id="patch_112">
    <path d="M 279.861772 99.419112
L 283.540806 99.419112
L 283.540806 95.128056
L 279.861772 95.128056
z
" clip-path="url(#p7459a060a4)" style="fill: #16a34a; stroke: #16a34a; stroke-width: 0.45; stroke-linejoin: miter"/>
   </g>
   <g id="patch_113">
    <path d="M 284.995791 99.419112
L 288.674824 99.419112
L 288.674824 95.128056
L 284.995791 95.128056
z
" clip-path="url(#p7459a060a4)" style="fill: #16a34a; stroke: #16a34a; stroke-width: 0.45; stroke-linejoin: miter"/>
   </g>
   <g id="patch_114">
    <path d="M 290.129809 99.419112
L 293.808843 99.419112
L 293.808843 95.128056
L 290.129809 95.128056
z
" clip-path="url(#p7459a060a4)" style="fill: #16a34a; stroke: #16a34a; stroke-width: 0.45; stroke-linejoin: miter"/>
   </g>
   <g id="patch_115">
    <path d="M 295.263828 99.419112
L 298.942861 99.419112
L 298.942861 95.128056
L 295.263828 95.128056
z
" clip-path="url(#p7459a060a4)" style="fill: #16a34a; stroke: #16a34a; stroke-width: 0.45; stroke-linejoin: miter"/>
   </g>
   <g id="patch_116">
    <path d="M 300.397846 99.419112
L 304.07688 99.419112
L 304.07688 95.128056
L 300.397846 95.128056
z
" clip-path="url(#p7459a060a4)" style="fill: #16a34a; stroke: #16a34a; stroke-width: 0.45; stroke-linejoin: miter"/>
   </g>
   <g id="patch_117">
    <path d="M 308.64969 99.419112
L 317.79531 99.419112
L 317.79531 95.128056
L 308.64969 95.128056
z
" clip-path="url(#p7459a060a4)" style="fill: #2563eb; stroke: #2563eb; stroke-width: 0.35; stroke-linejoin: miter"/>
   </g>
   <g id="patch_118">
    <path d="M 327.77235 99.419112
L 331.451384 99.419112
L 331.451384 95.128056
L 327.77235 95.128056
z
" clip-path="url(#p7459a060a4)" style="fill: #16a34a; stroke: #16a34a; stroke-width: 0.45; stroke-linejoin: miter"/>
   </g>
   <g id="patch_119">
    <path d="M 332.906368 99.419112
L 336.585402 99.419112
L 336.585402 95.128056
L 332.906368 95.128056
z
" clip-path="url(#p7459a060a4)" style="fill: #16a34a; stroke: #16a34a; stroke-width: 0.45; stroke-linejoin: miter"/>
   </g>
   <g id="patch_120">
    <path d="M 338.040387 99.419112
L 341.719421 99.419112
L 341.719421 95.128056
L 338.040387 95.128056
z
" clip-path="url(#p7459a060a4)" style="fill: #16a34a; stroke: #16a34a; stroke-width: 0.45; stroke-linejoin: miter"/>
   </g>
   <g id="patch_121">
    <path d="M 343.174405 99.419112
L 346.853439 99.419112
L 346.853439 95.128056
L 343.174405 95.128056
z
" clip-path="url(#p7459a060a4)" style="fill: #16a34a; stroke: #16a34a; stroke-width: 0.45; stroke-linejoin: miter"/>
   </g>
   <g id="patch_122">
    <path d="M 348.308424 99.419112
L 351.987458 99.419112
L 351.987458 95.128056
L 348.308424 95.128056
z
" clip-path="url(#p7459a060a4)" style="fill: #16a34a; stroke: #16a34a; stroke-width: 0.45; stroke-linejoin: miter"/>
   </g>
   <g id="patch_123">
    <path d="M 353.442442 99.419112
L 357.121476 99.419112
L 357.121476 95.128056
L 353.442442 95.128056
z
" clip-path="url(#p7459a060a4)" style="fill: #16a34a; stroke: #16a34a; stroke-width: 0.45; stroke-linejoin: miter"/>
   </g>
   <g id="patch_124">
    <path d="M 358.576461 99.419112
L 362.255494 99.419112
L 362.255494 95.128056
L 358.576461 95.128056
z
" clip-path="url(#p7459a060a4)" style="fill: #16a34a; stroke: #16a34a; stroke-width: 0.45; stroke-linejoin: miter"/>
   </g>
   <g id="patch_125">
    <path d="M 363.71048 99.419112
L 367.389513 99.419112
L 367.389513 95.128056
L 363.71048 95.128056
z
" clip-path="url(#p7459a060a4)" style="fill: #16a34a; stroke: #16a34a; stroke-width: 0.45; stroke-linejoin: miter"/>
   </g>
   <g id="patch_126">
    <path d="M 368.844498 99.419112
L 372.523531 99.419112
L 372.523531 95.128056
L 368.844498 95.128056
z
" clip-path="url(#p7459a060a4)" style="fill: #16a34a; stroke: #16a34a; stroke-width: 0.45; stroke-linejoin: miter"/>
   </g>
   <g id="patch_127">
    <path d="M 373.978516 99.419112
L 377.65755 99.419112
L 377.65755 95.128056
L 373.978516 95.128056
z
" clip-path="url(#p7459a060a4)" style="fill: #16a34a; stroke: #16a34a; stroke-width: 0.45; stroke-linejoin: miter"/>
   </g>
   <g id="patch_128">
    <path d="M 236.31615 161.16264
L 344.40075 161.16264
L 344.40075 154.01088
L 236.31615 154.01088
L 236.31615 161.16264
z
" clip-path="url(#p7459a060a4)" style="fill: none; stroke: #0f172a; stroke-width: 0.45; stroke-linejoin: miter"/>
   </g>
   <g id="patch_129">
    <path d="M 77.93064 81.778104
Q 82.50345 81.778104 86.40544 81.778104
" style="fill: none; stroke: #64748b; stroke-width: 0.6; stroke-linecap: round"/>
    <path d="M 82.40544 79.778104
L 86.40544 81.778104
L 82.40544 83.778104
z
" style="fill: #64748b; stroke: #64748b; stroke-width: 0.6; stroke-linecap: round"/>
   </g>
   <g id="patch_130">
    <path d="M 131.14152 81.778104
Q 135.71433 81.778104 139.61632 81.778104
" style="fill: none; stroke: #64748b; stroke-width: 0.6; stroke-linecap: round"/>
    <path d="M 135.61632 79.778104
L 139.61632 81.778104
L 135.61632 83.778104
z
" style="fill: #64748b; stroke: #64748b; stroke-width: 0.6; stroke-linecap: round"/>
   </g>
   <g id="patch_131">
    <path d="M 308.23398 69.620112
Q 315.508905 69.620112 322.168911 69.620112
" style="fill: none; stroke: #16a34a; stroke-width: 0.55; stroke-linecap: round"/>
    <path d="M 318.168911 67.620112
L 322.168911 69.620112
L 318.168911 71.620112
z
" style="fill: #16a34a; stroke: #16a34a; stroke-width: 0.55; stroke-linecap: round"/>
   </g>
   <g id="patch_132">
    <path d="M 308.23398 83.446848
Q 315.508905 83.446848 322.168911 83.446848
" style="fill: none; stroke: #16a34a; stroke-width: 0.55; stroke-linecap: round"/>
    <path d="M 318.168911 81.446848
L 322.168911 83.446848
L 318.168911 85.446848
z
" style="fill: #16a34a; stroke: #16a34a; stroke-width: 0.55; stroke-linecap: round"/>
   </g>
   <g id="patch_133">
    <path d="M 321.95241 97.273584
Q 322.36812 97.273584 322.168911 97.273584
" style="fill: none; stroke: #16a34a; stroke-width: 0.55; stroke-linecap: round"/>
    <path d="M 318.168911 95.273584
L 322.168911 97.273584
L 318.168911 99.273584
z
" style="fill: #16a34a; stroke: #16a34a; stroke-width: 0.55; stroke-linecap: round"/>
   </g>
   <g id="patch_134">
    <path d="M 103.28895 165.215304
Q 114.720975 165.215304 125.146769 165.215304
" style="fill: none; stroke: #2563eb; stroke-width: 0.9; stroke-linecap: round"/>
    <path d="M 121.146769 163.215304
L 125.146769 165.215304
L 121.146769 167.215304
z
" style="fill: #2563eb; stroke: #2563eb; stroke-width: 0.9; stroke-linecap: round"/>
   </g>
   <g id="text_1">
    <text style="font-weight: 700; font-size: 12.2px; font-family: 'DejaVu Sans'; text-anchor: start; fill: #0f172a" x="20.14695" y="15.486421" transform="rotate(-0 20.14695 15.486421)">Support: speedup regimes are not pixel masks</text>
   </g>
   <g id="text_2">
    <text style="font-size: 6px; font-family: 'DejaVu Sans'; text-anchor: start; fill: #475569" x="20.14695" y="23.597337" transform="rotate(-0 20.14695 23.597337)">Planner masks visualize routing only; C-PERSIST, C-VISION, and C-CEILING use different denominators.</text>
   </g>
   <g id="text_3">
    <text style="font-weight: 700; font-size: 7.5px; font-family: 'DejaVu Sans'; text-anchor: start; fill: #dc2626" x="27.62973" y="55.955771" transform="rotate(-0 27.62973 55.955771)">Baseline VLM</text>
   </g>
   <g id="text_4">
    <text style="font-weight: 700; font-size: 7.5px; font-family: 'DejaVu Sans'; text-anchor: start; fill: #16a34a" x="227.17053" y="55.955771" transform="rotate(-0 227.17053 55.955771)">C-PERSIST</text>
   </g>
   <g id="text_5">
    <text style="font-weight: 700; font-size: 7.5px; font-family: 'DejaVu Sans'; text-anchor: start; fill: #2563eb" x="27.62973" y="144.160811" transform="rotate(-0 27.62973 144.160811)">C-VISION</text>
   </g>
   <g id="text_6">
    <text style="font-weight: 700; font-size: 7.5px; font-family: 'DejaVu Sans'; text-anchor: start; fill: #7c3aed" x="227.17053" y="144.160811" transform="rotate(-0 227.17053 144.160811)">C-CEILING</text>
   </g>
   <g id="text_7">
    <text style="font-weight: 700; font-size: 6.6px; font-family: 'DejaVu Sans'; text-anchor: middle; fill: #dc2626" x="55.690155" y="80.738587" transform="rotate(-0 55.690155 80.738587)">Q1</text>
   </g>
   <g id="text_8">
    <text style="font-size: 5px; font-family: 'DejaVu Sans'; text-anchor: middle; fill: #dc2626" x="55.690155" y="87.925631" transform="rotate(-0 55.690155 87.925631)">rebuild</text>
   </g>
   <g id="text_9">
    <text style="font-weight: 700; font-size: 6.6px; font-family: 'DejaVu Sans'; text-anchor: middle; fill: #dc2626" x="108.901035" y="80.738587" transform="rotate(-0 108.901035 80.738587)">Q2</text>
   </g>
   <g id="text_10">
    <text style="font-size: 5px; font-family: 'DejaVu Sans'; text-anchor: middle; fill: #dc2626" x="108.901035" y="87.925631" transform="rotate(-0 108.901035 87.925631)">rebuild</text>
   </g>
   <g id="text_11">
    <text style="font-weight: 700; font-size: 6.6px; font-family: 'DejaVu Sans'; text-anchor: middle; fill: #dc2626" x="162.111915" y="80.738587" transform="rotate(-0 162.111915 80.738587)">Q3</text>
   </g>
   <g id="text_12">
    <text style="font-size: 5px; font-family: 'DejaVu Sans'; text-anchor: middle; fill: #dc2626" x="162.111915" y="87.925631" transform="rotate(-0 162.111915 87.925631)">rebuild</text>
   </g>
   <g id="text_13">
    <text style="font-size: 5.8px; font-family: 'DejaVu Sans'; text-anchor: start; fill: #475569" x="35.94393" y="104.833821" transform="rotate(-0 35.94393 104.833821)">same visual state is paid again for every question</text>
   </g>
   <g id="text_14">
    <text style="font-weight: 700; font-size: 6.2px; font-family: 'DejaVu Sans'; text-anchor: start; fill: #16a34a" x="235.48473" y="71.092532" transform="rotate(-0 235.48473 71.092532)">Q1</text>
   </g>
   <g id="text_15">
    <text style="font-size: 4.55px; font-family: 'DejaVu Sans'; text-anchor: start; fill: #475569" x="254.19168" y="65.631004" transform="rotate(-0 254.19168 65.631004)">buy full prefix</text>
   </g>
   <g id="text_16">
    <text style="font-weight: 700; font-size: 6.2px; font-family: 'DejaVu Sans'; text-anchor: start; fill: #16a34a" x="235.48473" y="84.919268" transform="rotate(-0 235.48473 84.919268)">Q2</text>
   </g>
   <g id="text_17">
    <text style="font-size: 4.55px; font-family: 'DejaVu Sans'; text-anchor: start; fill: #475569" x="254.19168" y="79.45774" transform="rotate(-0 254.19168 79.45774)">repair tail</text>
   </g>
   <g id="text_18">
    <text style="font-weight: 700; font-size: 6.2px; font-family: 'DejaVu Sans'; text-anchor: start; fill: #16a34a" x="235.48473" y="98.746004" transform="rotate(-0 235.48473 98.746004)">Q3</text>
   </g>
   <g id="text_19">
    <text style="font-size: 4.55px; font-family: 'DejaVu Sans'; text-anchor: start; fill: #475569" x="254.19168" y="93.284476" transform="rotate(-0 254.19168 93.284476)">append question</text>
   </g>
   <g id="text_20">
    <text style="font-weight: 700; font-size: 5.7px; font-family: 'DejaVu Sans'; text-anchor: start; fill: #16a34a" x="235.48473" y="107.644666" transform="rotate(-0 235.48473 107.644666)">14.90-35.92x after-ingest; 0/93 paired drift</text>
   </g>
   <g id="text_21">
    <text style="font-weight: 700; font-size: 5.8px; font-family: 'DejaVu Sans'; text-anchor: start; fill: #2563eb" x="38.8539" y="191.109069" transform="rotate(-0 38.8539 191.109069)">1.316x first-query measured sparse vision</text>
   </g>
   <g id="text_22">
    <text style="font-size: 5px; font-family: 'DejaVu Sans'; text-anchor: start; fill: #475569" x="38.8539" y="197.109167" transform="rotate(-0 38.8539 197.109167)">schematic mask: no checked per-example keep mask</text>
   </g>
   <g id="text_23">
    <text style="font-weight: 700; font-size: 4.6px; font-family: 'DejaVu Sans'; text-anchor: middle; fill: #ffffff" x="267.965231" y="158.856072" transform="rotate(-0 267.965231 158.856072)">vision</text>
   </g>
   <g id="text_24">
    <text style="font-weight: 700; font-size: 4.6px; font-family: 'DejaVu Sans'; text-anchor: middle; fill: #ffffff" x="322.007531" y="158.856072" transform="rotate(-0 322.007531 158.856072)">other</text>
   </g>
   <g id="text_25">
    <text style="font-weight: 700; font-size: 5.7px; font-family: 'DejaVu Sans'; text-anchor: start; fill: #7c3aed" x="236.31615" y="172.010506" transform="rotate(-0 236.31615 172.010506)">composition audit 1.042x ≈ share ceiling</text>
   </g>
   <g id="text_26">
    <text style="font-weight: 700; font-size: 5.6px; font-family: 'DejaVu Sans'; text-anchor: start; fill: #7c3aed" x="236.31615" y="182.256034" transform="rotate(-0 236.31615 182.256034)">C-STREAM: state updates at native rate</text>
   </g>
   <g id="text_27">
    <text style="font-size: 5.1px; font-family: 'DejaVu Sans'; text-anchor: start; fill: #475569" x="236.31615" y="188.316257" transform="rotate(-0 236.31615 188.316257)">candidate target, not headline result</text>
   </g>
  </g>
 </g>
 <defs>
  <clipPath id="p7459a060a4">
   <rect x="1.44" y="1.44" width="415.71" height="238.392"/>
  </clipPath>
 </defs>
</svg>
